# Blender v2.79 (sub 0) OBJ File: ''
# www.blender.org
mtllib b4.mtl
o choco:pSphere1
v -0.021180 0.105570 0.285927
v -0.037951 0.100800 0.289814
v -0.026878 0.091819 0.295094
v -0.043333 0.087239 0.304083
v -0.025395 0.091428 0.294901
v -0.026148 0.095828 0.295324
v -0.003770 0.094725 0.299666
v -0.006505 0.104009 0.289028
v -0.025669 0.083665 0.308619
v 0.006304 0.112175 0.289470
v -0.008416 0.122619 0.282504
v -0.036190 0.116750 0.281982
v -0.055454 0.111071 0.288613
v -0.057277 0.100873 0.296803
v -0.002301 0.086007 0.311834
v -0.027321 0.081695 0.313748
v -0.012084 0.083219 0.319490
v 0.014777 0.118403 0.292720
v -0.033013 0.127544 0.281655
v -0.053878 0.128763 0.286561
v -0.064425 0.123841 0.290912
v -0.071293 0.117602 0.296424
v -0.069298 0.104588 0.302579
v -0.050101 0.085336 0.314322
v 0.012014 0.101408 0.300790
v 0.019633 0.109526 0.301497
v -0.044012 0.086499 0.330012
v -0.026130 0.083943 0.325343
v 0.019299 0.125270 0.298080
v -0.003828 0.134859 0.287409
v -0.032705 0.137416 0.285451
v -0.076934 0.115423 0.308388
v -0.072895 0.105491 0.311595
v 0.005705 0.091681 0.328642
v 0.021502 0.107011 0.312482
v -0.066684 0.100059 0.319124
v -0.057401 0.090176 0.326063
v -0.027544 0.090683 0.337741
v -0.008483 0.092069 0.336521
v 0.024438 0.117902 0.311285
v -0.042361 0.143185 0.295019
v -0.056076 0.139655 0.297966
v -0.072066 0.129606 0.304016
v -0.074029 0.111987 0.318948
v -0.062580 0.108477 0.318583
v -0.051718 0.101260 0.320855
v -0.056993 0.099397 0.336038
v -0.026115 0.093578 0.338553
v 0.015089 0.103277 0.322928
v 0.008143 0.138113 0.299817
v 0.018798 0.130059 0.310980
v -0.018671 0.145963 0.298455
v -0.064427 0.109777 0.328780
v 0.003605 0.100666 0.336659
v -0.000902 0.101986 0.321837
v 0.009405 0.110034 0.320127
v 0.018798 0.115723 0.323249
v -0.071556 0.121740 0.320960
v -0.040411 0.101958 0.341388
v -0.025476 0.101567 0.342367
v 0.003607 0.140350 0.309789
v -0.064795 0.134973 0.312278
v -0.045900 0.111828 0.327487
v -0.007489 0.113018 0.327845
v 0.006309 0.115494 0.331542
v 0.010351 0.128932 0.323871
v -0.043643 0.144224 0.308646
v -0.025471 0.110633 0.343294
v 0.005929 0.136003 0.318354
v -0.024465 0.143795 0.316719
v -0.058589 0.135584 0.318157
v -0.058778 0.126450 0.327541
v -0.043509 0.117830 0.339758
v -0.008786 0.117590 0.339796
v -0.055172 0.129749 0.312992
v -0.057389 0.122252 0.320131
v -0.027144 0.112731 0.342610
v 0.001845 0.125808 0.329428
v 0.004879 0.122322 0.320443
v 0.002462 0.129799 0.313101
v -0.011276 0.134248 0.312992
v -0.008577 0.122955 0.324725
v -0.011115 0.141124 0.318790
v -0.041919 0.141014 0.318571
v -0.041527 0.133896 0.313483
v -0.043992 0.122907 0.324955
v -0.045041 0.125687 0.332853
v -0.007736 0.125634 0.332461
v -0.020981 0.130290 0.319763
v -0.032055 0.136675 0.325991
v -0.031543 0.130243 0.319588
v -0.020570 0.125736 0.324428
v -0.020076 0.136133 0.326263
v -0.031787 0.125458 0.324705
v -0.030103 0.129748 0.333800
v -0.025946 0.130209 0.334834
vt 0.850000 0.695774
vt 0.850000 0.700000
vt 0.850000 0.650000
vt 0.800000 0.616097
vt 0.800000 0.699924
vt 0.800000 0.700000
vt 0.400000 0.950000
vt 0.400071 0.950000
vt 0.450000 0.950000
vt 0.600000 0.477936
vt 0.550000 0.454048
vt 0.600096 0.442502
vt 0.550000 0.600000
vt 0.550000 0.650000
vt 0.550000 0.600000
vt 0.550000 0.700000
vt 0.550000 0.750000
vt 0.550000 0.700000
vt 0.400000 0.800000
vt 0.422534 0.750000
vt 0.435115 0.750000
vt 0.350000 0.800000
vt 0.400000 0.800000
vt 0.400000 0.800000
vt 0.300000 0.854136
vt 0.350000 0.850000
vt 0.300000 0.858316
vt 0.600000 0.900000
vt 0.600000 0.850000
vt 0.600000 0.900000
vt 0.050000 0.950000
vt 0.000000 0.950000
vt 0.000000 0.950000
vt 0.050000 0.900000
vt 0.050000 0.950000
vt 0.050000 0.939152
vt 0.376951 0.945316
vt 0.350000 0.900000
vt 0.387037 0.950000
vt 0.550000 0.528847
vt 0.550000 0.650000
vt 0.550000 0.750000
vt 0.400000 0.800000
vt 0.350000 0.800000
vt 0.350000 0.850000
vt 0.600000 0.850000
vt 0.050000 0.950000
vt 0.974318 0.055909
vt 0.966147 0.154700
vt 0.924738 0.000185
vt 0.453088 0.091815
vt 0.255958 0.208983
vt 0.107650 0.075209
vt 0.035547 0.164342
vt 0.124234 0.284063
vt 0.021442 0.256149
vt 0.600000 0.183315
vt 0.481795 0.230462
vt 0.850000 0.185856
vt 0.800000 0.274517
vt 0.719380 0.055251
vt 0.703007 0.207976
vt 0.722166 0.003628
vt 0.750000 0.329429
vt 0.020550 0.357336
vt 0.911538 0.285018
vt 1.000000 0.278075
vt 0.950000 0.364218
vt 0.611990 0.313420
vt 0.695771 0.264050
vt 0.650000 0.453272
vt 0.300000 0.380709
vt 0.221049 0.440203
vt 0.225426 0.323965
vt 0.474866 0.330929
vt 0.500000 0.427248
vt 0.450000 0.478155
vt 0.900567 0.451558
vt 0.800000 0.478793
vt 0.750000 0.546729
vt 0.400000 0.386416
vt 0.380203 0.546365
vt 0.350000 0.383534
vt 0.500000 0.546060
vt 0.600000 0.594618
vt 0.173954 0.624806
vt 0.125856 0.439016
vt 0.250000 0.570968
vt 0.950000 0.521845
vt 0.900000 0.613584
vt 0.466434 0.647570
vt 0.695971 0.547982
vt 0.650000 0.670573
vt 0.376811 0.672052
vt 0.550000 0.618721
vt 0.800000 0.508467
vt 0.850000 0.571024
vt 0.800000 0.738490
vt 0.850000 0.513452
vt 0.850000 0.704742
vt 1.000000 0.613583
vt 0.946006 0.741153
vt 0.071332 0.694221
vt 0.078746 0.570897
vt 0.300000 0.568906
vt 0.275592 0.723612
vt 0.800000 0.612906
vt 0.714634 0.803092
vt 0.005680 0.765299
vt 0.000000 0.613583
vt 0.198481 0.822102
vt 0.600000 0.721522
vt 0.535111 0.844828
vt 0.600000 0.815759
vt 0.074742 0.852912
vt 0.322373 0.849839
vt 0.398336 0.765794
vt 0.900000 0.800000
vt 0.857507 0.851271
vt 1.000000 0.772803
vt 0.873146 0.850546
vt 0.939152 0.767359
vt 0.335115 0.849947
vt 0.348983 0.909318
vt 0.800000 0.813123
vt 0.752612 0.973653
vt 0.050056 0.910446
vt 0.000000 0.950000
vt 0.000000 0.871009
vt 0.631664 0.992517
vt 0.576686 0.950000
vt 0.325000 0.000000
vt 0.689790 0.056302
vt 0.575000 0.000000
vt 0.800000 0.550000
vt 0.800000 0.577487
vt 0.800000 0.600000
vt 0.850000 0.784944
vt 0.850000 0.800000
vt 0.850000 0.750000
vt 1.000000 0.800000
vt 1.000000 0.765523
vt 1.000000 0.750000
vt 0.050000 0.818306
vt 0.047065 0.815289
vt 0.000000 0.800000
vt 0.500000 0.800000
vt 0.494002 0.800000
vt 0.450000 0.800000
vt 0.550000 0.800000
vt 0.550000 0.832305
vt 0.550000 0.850000
vt 0.850000 0.828334
vt 0.850000 0.850000
vt 0.850000 0.800000
vt 0.469914 0.950000
vt 0.450000 0.950000
vt 0.500000 0.950000
vt 0.702177 0.382447
vt 0.701134 0.580631
vt 0.702736 0.677510
vt 0.695631 0.791600
vt 0.600000 0.910446
vt 0.590241 0.916647
vt 0.550000 0.950000
vt 0.043138 0.919544
vt 0.125000 1.000000
vt 0.351238 0.920542
vt 0.275000 1.000000
vt 0.475000 1.000000
vt 0.715777 0.968919
vt 0.375463 0.227245
vt 1.000000 0.378169
vt 1.000000 0.476117
vt 0.022625 0.465733
vt 0.473611 0.777193
vt 0.545091 0.846289
vt 1.000000 0.750000
vt 0.002055 0.800000
vt 0.062963 0.850000
vt 0.400000 0.769443
vt 0.460081 0.765708
vt 0.563501 0.945854
vt 0.848831 0.948036
vt 0.600000 0.600000
vt 0.600000 0.650000
vt 0.600000 0.650000
vt 0.800000 0.531934
vt 0.800000 0.500000
vt 0.800000 0.550000
vt 0.850000 0.721904
vt 0.850000 0.700000
vt 0.100000 0.850000
vt 0.100000 0.900000
vt 0.100000 0.850000
vt 0.050000 0.850000
vt 0.100000 0.850000
vt 0.085137 0.850000
vt 0.924855 0.950000
vt 0.824505 0.999010
vt 0.600000 0.600000
vt 0.100000 0.900000
vn 0.1549 -0.6024 0.7831
vn 0.1648 -0.5675 0.8067
vn 0.6860 -0.5860 0.4312
vn -0.1387 0.4785 0.8671
vn 0.9865 0.1072 0.1241
vn 0.1707 0.9363 -0.3069
vn -0.5779 -0.4954 0.6486
vn -0.0899 0.3160 0.9445
vn -0.7510 0.3229 0.5760
vn -0.1709 -0.6328 0.7552
vn -0.0788 0.9201 -0.3836
vn -0.5542 0.6957 -0.4570
vn 0.6220 -0.5133 0.5914
vn -0.1238 0.1236 0.9846
vn 0.8922 0.1437 0.4281
vn 0.1269 0.8731 -0.4708
vn -0.6397 -0.5672 0.5187
vn -0.0992 0.5033 0.8584
vn -0.8077 -0.0464 0.5878
vn -0.1909 -0.5700 0.7991
vn -0.1164 0.9423 -0.3138
vn 0.0331 -0.4974 -0.8669
vn 0.2163 -0.5497 -0.8069
vn 0.2095 -0.4495 -0.8684
vn -0.1693 -0.5891 -0.7901
vn -0.1198 -0.1881 -0.9748
vn 0.2129 0.0325 -0.9765
vn 0.4109 -0.3251 -0.8517
vn -0.2771 -0.8063 -0.5225
vn -0.4138 -0.6270 -0.6600
vn 0.2744 -0.6941 -0.6656
vn 0.4223 -0.8748 -0.2376
vn -0.5306 -0.3339 -0.7791
vn -0.5752 -0.8178 0.0179
vn 0.1598 -0.9785 0.1303
vn 0.6145 -0.0419 -0.7878
vn 0.5635 -0.6737 -0.4781
vn 0.7911 -0.3807 -0.4787
vn -0.4003 -0.9068 -0.1325
vn 0.4596 -0.8653 0.2000
vn -0.1897 -0.8456 0.4990
vn -0.3735 0.3257 -0.8686
vn -0.0576 0.6119 -0.7888
vn -0.0623 0.1817 -0.9814
vn -0.6647 -0.5834 -0.4668
vn -0.8175 -0.5756 -0.0169
vn -0.9959 -0.0321 -0.0844
vn -0.4985 -0.8295 0.2519
vn 0.8773 -0.4782 0.0403
vn 0.5017 -0.8073 0.3108
vn 0.1832 -0.6252 0.7587
vn -0.7633 -0.0726 -0.6420
vn -0.8217 0.5407 -0.1804
vn -0.5780 0.1927 -0.7929
vn -0.7809 -0.5303 0.3301
vn -0.8753 -0.1525 0.4588
vn -0.2983 -0.4436 0.8451
vn 0.1023 0.9642 -0.2448
vn 0.3134 0.5500 -0.7741
vn -0.2083 0.8851 -0.4162
vn 0.9914 0.0999 0.0843
vn 0.7730 0.0709 0.6304
vn -0.7511 0.3657 0.5497
vn 0.5590 -0.7397 0.3746
vn -0.1599 -0.2317 0.9596
vn -0.5667 0.7818 0.2602
vn -0.6237 -0.0404 0.7806
vn 0.3671 -0.2681 0.8907
vn 0.4053 -0.0440 0.9131
vn 0.7346 0.5524 0.3940
vn 0.7928 -0.3960 0.4633
vn 0.4854 0.1811 0.8553
vn 0.7828 0.5967 0.1764
vn 0.6199 0.4882 0.6144
vn 0.3601 0.9204 0.1520
vn 0.5197 0.7938 -0.3160
vn -0.4514 0.8226 -0.3457
vn -0.2183 0.9674 0.1286
vn 0.2779 -0.3335 0.9009
vn -0.4663 0.1901 0.8640
vn 0.4701 0.7997 0.3735
vn 0.0230 0.9269 0.3746
vn -0.4058 0.1109 0.9072
vn -0.2294 0.4915 0.8401
vn -0.4529 -0.0813 0.8879
vn -0.1647 0.2091 0.9639
vn 0.1410 0.9380 0.3165
vn -0.1640 0.9115 0.3771
vn -0.4723 0.7785 0.4133
vn 0.3316 0.3348 0.8820
vn 0.2917 0.2936 0.9103
vn 0.2279 0.7248 0.6502
vn 0.1931 0.5608 0.8051
vn 0.2099 0.7243 0.6567
vn -0.2014 0.7399 0.6418
vn -0.6691 0.5634 0.4846
vn 0.5808 0.5548 0.5957
vn 0.2394 0.6711 0.7016
vn 0.6683 0.5752 0.4717
vn 0.7054 0.5768 0.4119
vn -0.2369 0.6686 0.7049
vn 0.6395 -0.5570 -0.5298
vn -0.7301 0.6591 -0.1802
vn -0.7646 0.6194 -0.1784
vn -0.8435 0.4937 -0.2114
vn -0.9950 -0.0369 0.0932
vn -0.7587 0.5615 0.3304
vn -0.9128 0.4077 -0.0235
vn 0.8812 0.4123 -0.2312
vn 0.8339 0.5131 -0.2034
vn 0.8314 0.5178 -0.2018
vn -0.5763 -0.7816 0.2388
vn -0.7069 -0.6938 0.1380
vn -0.7841 -0.6170 0.0676
vn -0.4455 -0.7373 0.5079
vn -0.0236 -0.3083 0.9510
vn -0.2605 0.2174 0.9407
vn 0.6822 -0.0896 0.7257
vn 0.4332 0.5289 0.7298
vn 0.0258 0.8137 0.5808
vn -0.3667 -0.3424 -0.8650
vn 0.7899 0.3329 -0.5150
vn -0.4911 0.3485 0.7983
vn -0.4016 -0.3203 0.8580
vn -0.3540 0.1713 0.9194
vn 0.1600 0.7517 0.6398
vn -0.2486 0.7153 0.6532
vn -0.2470 0.7098 0.6597
vn 0.5607 -0.7677 0.3102
vn 0.6652 -0.7093 0.2331
vn 0.7589 -0.6150 0.2139
vn -0.9021 0.3346 -0.2724
vn -0.8492 0.4735 -0.2339
vn 0.8842 -0.4127 0.2186
vn -0.5418 -0.7844 0.3019
vn 0.5511 -0.7563 0.3526
vn -0.5367 -0.7719 0.3407
usemtl blinn2SG
s off
f 71/1/1 75/2/1 85/3/1
f 71/4/2 85/5/2 84/6/2
f 93/7/3 89/8/3 83/9/3
f 46/10/4 36/11/4 37/12/4
f 76/13/5 71/14/5 72/15/5
f 86/16/6 72/17/6 87/18/6
f 91/19/7 84/20/7 85/21/7
f 55/22/8 49/23/8 56/24/8
f 66/25/9 80/26/9 79/27/9
f 81/28/10 69/29/10 83/30/10
f 82/31/11 78/32/11 79/33/11
f 78/34/12 66/35/12 79/36/12
f 83/37/13 89/38/13 81/39/13
f 46/10/14 45/40/14 36/11/14
f 76/13/15 75/41/15 71/14/15
f 86/16/16 76/42/16 72/17/16
f 91/19/17 90/43/17 84/20/17
f 55/22/18 34/44/18 49/23/18
f 66/25/19 69/45/19 80/26/19
f 81/28/20 80/46/20 69/29/20
f 82/31/21 88/47/21 78/32/21
s 1
f 1/48/22 8/49/23 6/50/24
f 2/51/25 12/52/26 1/53/22
f 8/54/23 11/55/27 10/56/28
f 1/53/22 12/52/26 11/55/27
f 2/51/25 4/57/29 14/58/30
f 7/59/31 15/60/32 5/61/33
f 9/62/34 6/63/24 5/61/33
f 15/60/32 17/64/35 9/62/34
f 10/56/28 11/55/27 18/65/36
f 25/66/37 10/67/28 26/68/38
f 24/69/39 16/70/40 27/71/41
f 20/72/42 31/73/43 19/74/44
f 23/75/45 33/76/46 32/77/47
f 23/75/45 37/12/48 33/76/46
f 24/69/39 27/71/41 37/12/48
f 26/68/38 35/78/49 25/66/37
f 34/79/50 39/80/51 17/64/35
f 22/81/52 43/82/53 21/83/54
f 32/77/47 43/82/53 22/81/52
f 33/76/46 36/11/55 44/84/56
f 37/12/48 27/71/41 47/85/57
f 31/73/43 52/86/58 30/87/59
f 31/73/43 41/88/60 52/86/58
f 35/78/49 40/89/61 57/90/62
f 44/84/56 58/91/63 32/77/47
f 38/92/64 59/93/65 27/71/41
f 43/82/53 58/91/63 62/94/66
f 53/95/67 58/91/63 44/84/56
f 55/96/68 56/97/69 64/98/70
f 49/99/71 57/90/62 65/100/72
f 51/101/73 66/102/74 40/89/61
f 52/86/58 61/103/75 50/104/76
f 42/105/77 62/94/66 67/106/78
f 39/80/51 54/107/79 68/108/80
f 61/103/75 69/109/81 51/110/73
f 52/86/58 67/106/78 70/111/82
f 63/112/83 86/113/84 45/40/85
f 59/93/65 73/114/86 47/85/57
f 70/111/82 83/115/87 61/103/75
f 67/106/78 84/116/88 70/111/82
f 67/106/78 71/117/89 84/116/88
f 65/100/72 78/118/90 88/119/91
f 80/120/92 82/121/93 79/122/94
f 85/123/95 86/113/84 91/124/96
f 68/108/80 74/125/97 96/126/98
f 89/127/99 92/128/100 82/129/93
f 96/130/98 95/131/101 73/114/86
f 2/51/25 1/53/22 6/132/24
f 3/133/102 2/51/25 6/134/24
f 73/135/103 63/136/104 47/137/105
f 90/138/106 91/139/96 94/140/107
f 90/141/106 94/142/107 95/143/108
f 95/144/108 94/145/107 73/146/103
f 34/147/109 55/148/110 54/149/111
f 65/150/112 56/151/113 49/152/114
f 54/153/111 55/154/110 64/155/70
f 74/156/97 64/157/70 92/158/100
f 28/159/115 17/64/35 39/80/51
f 48/160/116 39/80/51 60/161/117
f 38/92/64 48/160/116 77/162/118
f 89/163/99 93/164/119 92/165/100
f 93/166/119 70/111/82 96/167/98
f 70/111/82 90/168/120 96/169/98
f 90/168/120 95/131/101 96/170/98
f 96/171/98 77/162/118 48/160/116
f 3/133/102 4/57/29 2/51/25
f 5/61/33 6/50/24 7/59/31
f 6/50/24 8/49/23 7/59/31
f 4/57/29 3/133/102 16/70/40
f 20/72/42 13/172/121 21/83/54
f 8/54/23 1/53/22 11/55/27
f 2/51/25 13/172/121 12/52/26
f 2/51/25 14/58/30 13/172/121
f 5/61/33 15/60/32 9/62/34
f 8/49/23 25/66/37 7/59/31
f 4/57/29 16/70/40 24/69/39
f 25/66/37 8/49/23 10/67/28
f 11/55/27 12/52/26 19/74/44
f 12/52/26 20/72/42 19/74/44
f 13/172/121 23/75/45 22/81/52
f 13/172/121 22/81/52 21/83/54
f 24/69/39 14/58/30 4/57/29
f 30/87/59 18/65/36 11/55/27
f 7/59/31 25/66/37 15/60/32
f 26/68/38 10/67/28 18/173/36
f 31/73/43 11/55/27 19/74/44
f 34/79/50 25/66/37 35/78/49
f 23/75/45 32/77/47 22/81/52
f 23/75/45 24/69/39 37/12/48
f 15/60/32 34/79/50 17/64/35
f 29/174/122 26/68/38 18/173/36
f 33/76/46 37/12/48 36/11/55
f 27/71/41 16/70/40 38/92/64
f 26/68/38 40/89/61 35/78/49
f 41/88/60 20/72/42 42/105/77
f 29/175/122 30/87/59 50/104/76
f 42/105/77 21/83/54 43/82/53
f 72/176/123 62/94/66 58/91/63
f 32/77/47 33/76/46 44/84/56
f 35/78/49 49/99/71 34/79/50
f 29/175/122 50/104/76 51/110/73
f 30/87/59 52/86/58 50/104/76
f 36/11/55 53/95/67 44/84/56
f 39/80/51 34/79/50 54/107/79
f 49/99/71 35/78/49 57/90/62
f 29/174/122 51/101/73 40/89/61
f 43/82/53 32/77/47 58/91/63
f 27/71/41 59/93/65 47/85/57
f 50/104/76 61/103/75 51/110/73
f 42/105/77 43/82/53 62/94/66
f 46/10/124 63/112/83 45/40/85
f 57/90/62 40/89/61 66/102/74
f 52/86/58 41/88/60 67/106/78
f 41/88/60 42/105/77 67/106/78
f 38/92/64 77/162/118 59/93/65
f 52/86/58 70/111/82 61/103/75
f 67/106/78 62/94/66 71/117/89
f 72/176/123 53/95/67 87/177/125
f 68/108/80 54/107/79 74/125/97
f 65/100/72 57/90/62 66/102/74
f 51/101/73 69/178/81 66/102/74
f 61/103/75 83/115/87 69/109/81
f 59/93/65 77/162/118 73/114/86
f 60/161/117 68/108/80 48/160/116
f 64/98/70 56/97/69 82/121/93
f 65/100/72 66/102/74 78/118/90
f 80/179/92 81/180/126 82/129/93
f 85/123/95 75/181/127 86/113/84
f 75/181/127 76/182/128 86/113/84
f 63/112/83 94/183/107 86/113/84
f 81/180/126 89/127/99 82/129/93
f 70/111/82 84/116/88 90/168/120
f 77/162/118 96/130/98 73/114/86
f 64/98/70 82/121/93 92/184/100
f 83/115/87 70/111/82 93/166/119
f 91/124/96 86/113/84 94/183/107
f 86/185/129 53/186/130 45/187/131
f 37/12/132 47/85/105 46/10/133
f 53/95/130 36/11/134 45/40/131
f 47/188/105 63/189/104 46/190/133
f 73/191/103 94/140/107 63/192/104
f 65/193/112 82/194/135 56/195/113
f 74/196/97 54/197/111 64/198/70
f 6/63/24 16/70/40 3/133/102
f 93/199/119 96/200/98 92/184/100
f 96/200/98 74/125/97 92/184/100
f 28/159/115 9/62/34 17/64/35
f 48/160/116 28/159/115 39/80/51
f 60/161/117 39/80/51 68/108/80
f 28/159/115 38/92/64 16/70/40
f 96/171/98 48/160/116 68/108/80
f 9/62/34 28/159/115 6/63/24
f 20/72/42 12/52/26 13/172/121
f 13/172/121 14/58/30 23/75/45
f 24/69/39 23/75/45 14/58/30
f 30/87/59 29/175/122 18/65/36
f 31/73/43 30/87/59 11/55/27
f 34/79/50 15/60/32 25/66/37
f 29/174/122 40/89/61 26/68/38
f 41/88/60 31/73/43 20/72/42
f 42/105/77 20/72/42 21/83/54
f 72/176/123 71/117/89 62/94/66
f 72/176/123 58/91/63 53/95/67
f 86/185/129 87/201/136 53/186/130
f 65/193/112 88/202/137 82/194/135
f 6/63/24 28/159/115 16/70/40
f 28/159/115 48/160/116 38/92/64
