# Blender v2.79 (sub 0) OBJ File: 'mansion.blend'
# www.blender.org
o Circle
v 0.521097 -0.064493 -2.603782
v 0.496143 -0.064493 -2.597095
v 0.477876 -0.064493 -2.578828
v 0.471190 -0.064493 -2.553874
v 0.477876 -0.064493 -2.528920
v 0.496143 -0.064493 -2.510653
v 0.521097 -0.064493 -2.503967
v 0.546051 -0.064493 -2.510653
v 0.564318 -0.064493 -2.528920
v 0.571005 -0.064493 -2.553874
v 0.564318 -0.064493 -2.578828
v 0.546051 -0.064493 -2.597095
v 0.521097 -0.046537 -2.618526
v 0.488772 -0.046537 -2.609864
v 0.465108 -0.046537 -2.586200
v 0.458564 -0.046537 -2.552658
v 0.466939 -0.046537 -2.521401
v 0.489820 -0.046537 -2.498520
v 0.521077 -0.046537 -2.490145
v 0.552333 -0.046537 -2.498520
v 0.575215 -0.046537 -2.521401
v 0.585749 -0.046537 -2.553874
v 0.577087 -0.046537 -2.586200
v 0.553423 -0.046537 -2.609864
v 0.521097 -0.040044 -2.618526
v 0.488772 -0.040044 -2.609864
v 0.465108 -0.040044 -2.586200
v 0.456446 -0.040044 -2.553874
v 0.465108 -0.040044 -2.521549
v 0.488772 -0.040044 -2.497885
v 0.521097 -0.040044 -2.489223
v 0.553423 -0.040044 -2.497885
v 0.577087 -0.040044 -2.521549
v 0.585749 -0.040044 -2.553874
v 0.577087 -0.040044 -2.586200
v 0.553423 -0.040044 -2.609864
v 0.521097 -0.040044 -2.607273
v 0.494398 -0.040044 -2.600119
v 0.474853 -0.040044 -2.580574
v 0.467699 -0.040044 -2.553874
v 0.474853 -0.040044 -2.527175
v 0.494398 -0.040044 -2.507630
v 0.521097 -0.040044 -2.500476
v 0.547796 -0.040044 -2.507630
v 0.567342 -0.040044 -2.527175
v 0.574496 -0.040044 -2.553874
v 0.567342 -0.040044 -2.580574
v 0.547796 -0.040044 -2.600119
v 0.521097 -0.048765 -2.599188
v 0.498440 -0.048765 -2.593117
v 0.481854 -0.048765 -2.576531
v 0.475783 -0.048765 -2.553874
v 0.481854 -0.048765 -2.531217
v 0.498440 -0.048765 -2.514631
v 0.521097 -0.048765 -2.508560
v 0.543754 -0.048765 -2.514631
v 0.560340 -0.048765 -2.531217
v 0.566411 -0.048765 -2.553874
v 0.560340 -0.048765 -2.576531
v 0.543754 -0.048765 -2.593117
v 0.521097 -0.054779 -2.588843
v 0.503613 -0.054779 -2.584158
v 0.490814 -0.054779 -2.571358
v 0.486129 -0.054779 -2.553874
v 0.490814 -0.054779 -2.536390
v 0.503613 -0.054779 -2.523591
v 0.521097 -0.054779 -2.518906
v 0.538581 -0.054779 -2.523591
v 0.551381 -0.054779 -2.536390
v 0.556065 -0.054779 -2.553874
v 0.551381 -0.054779 -2.571358
v 0.538581 -0.054779 -2.584158
v 0.521097 -0.056462 -2.553874
v 0.567662 -0.064493 -2.541397
v 0.579402 -0.046537 -2.537030
v 0.581418 -0.040044 -2.537711
v 0.570919 -0.040044 -2.540525
v 0.563376 -0.048765 -2.542546
v 0.553723 -0.054779 -2.545132
v 0.474533 -0.064493 -2.566351
v 0.460777 -0.046537 -2.570037
v 0.460777 -0.040044 -2.570037
v 0.471276 -0.040044 -2.567224
v 0.478819 -0.048765 -2.565203
v 0.488471 -0.054779 -2.562616
v 0.579895 -0.045915 -2.555443
v 0.575564 -0.045915 -2.539280
v 0.545775 -0.044405 -2.596618
v 0.521097 -0.044405 -2.603230
v 0.563841 -0.044405 -2.578552
v 0.570453 -0.044405 -2.553874
v 0.563841 -0.044405 -2.529196
v 0.545775 -0.044405 -2.511131
v 0.521097 -0.044405 -2.504518
v 0.496419 -0.044405 -2.511131
v 0.478354 -0.044405 -2.529196
v 0.471741 -0.044405 -2.553874
v 0.478354 -0.044405 -2.578552
v 0.496419 -0.044405 -2.596618
v 0.567147 -0.044405 -2.541535
v 0.475047 -0.044405 -2.566213
v 0.464711 -0.047018 -2.551660
v 0.469042 -0.047018 -2.567822
v 0.488772 -0.046537 -2.609864
v 0.488772 -0.046537 -2.609864
v 0.521097 -0.046537 -2.618526
v 0.521097 -0.046537 -2.618526
v 0.465108 -0.046537 -2.586200
v 0.460777 -0.046537 -2.570037
v 0.460777 -0.046537 -2.570037
v 0.460777 -0.046537 -2.570037
v 0.577087 -0.046537 -2.586200
v 0.585749 -0.046537 -2.553874
v 0.585749 -0.046537 -2.553874
v 0.585749 -0.046537 -2.553874
v 0.553423 -0.046537 -2.609864
v 0.553423 -0.046537 -2.609864
v 0.488772 -0.040044 -2.609864
v 0.488772 -0.040044 -2.609864
v 0.521097 -0.040044 -2.618526
v 0.521097 -0.040044 -2.618526
v 0.465108 -0.040044 -2.586200
v 0.460777 -0.040044 -2.570037
v 0.460777 -0.040044 -2.570037
v 0.465108 -0.040044 -2.521549
v 0.456446 -0.040044 -2.553874
v 0.456446 -0.040044 -2.553874
v 0.488772 -0.040044 -2.497885
v 0.521097 -0.040044 -2.489223
v 0.553423 -0.040044 -2.497885
v 0.577087 -0.040044 -2.521549
v 0.581418 -0.040044 -2.537711
v 0.581418 -0.040044 -2.537711
v 0.577087 -0.040044 -2.586200
v 0.585749 -0.040044 -2.553874
v 0.585749 -0.040044 -2.553874
v 0.553423 -0.040044 -2.609864
v 0.553423 -0.040044 -2.609864
v 0.458564 -0.046537 -2.552658
v 0.458564 -0.046537 -2.552658
v 0.494398 -0.040044 -2.600119
v 0.521097 -0.040044 -2.607273
v 0.474853 -0.040044 -2.580574
v 0.471276 -0.040044 -2.567224
v 0.471276 -0.040044 -2.567224
v 0.474853 -0.040044 -2.527175
v 0.467699 -0.040044 -2.553874
v 0.467699 -0.040044 -2.553874
v 0.494398 -0.040044 -2.507630
v 0.521097 -0.040044 -2.500476
v 0.547796 -0.040044 -2.507630
v 0.567342 -0.040044 -2.527175
v 0.570919 -0.040044 -2.540525
v 0.570919 -0.040044 -2.540525
v 0.567342 -0.040044 -2.580574
v 0.574496 -0.040044 -2.553874
v 0.574496 -0.040044 -2.553874
v 0.547796 -0.040044 -2.600119
v 0.570453 -0.044405 -2.553874
v 0.570453 -0.044405 -2.553874
v 0.471741 -0.044405 -2.553874
v 0.471741 -0.044405 -2.553874
v 0.579402 -0.046537 -2.537030
v 0.579402 -0.046537 -2.537030
v 0.575564 -0.045915 -2.539280
v 0.575564 -0.045915 -2.539280
v 0.567147 -0.044405 -2.541535
v 0.567147 -0.044405 -2.541535
v 0.579895 -0.045915 -2.555443
v 0.475047 -0.044405 -2.566213
v 0.475047 -0.044405 -2.566213
v 0.469042 -0.047018 -2.567822
v 0.464711 -0.047018 -2.551660
vn 0.3864 -0.6346 -0.6693
vn 0.0000 -0.6346 -0.7728
vn 0.6693 -0.6346 -0.3864
vn 0.7724 -0.6342 0.0341
vn 0.7843 -0.6201 0.0198
vn 0.8441 -0.4776 0.2437
vn 0.7933 -0.5704 0.2126
vn 0.4018 -0.6050 0.6874
vn 0.7825 -0.4064 0.4717
vn 0.4530 -0.3828 0.8051
vn 0.0001 -0.6100 0.7924
vn -0.0003 -0.3738 0.9275
vn -0.4537 -0.3818 0.8052
vn -0.4013 -0.6056 0.6871
vn -0.7833 -0.4046 0.4718
vn -0.7009 -0.5929 0.3963
vn -0.8769 -0.4616 0.1340
vn -0.8018 -0.5973 0.0190
vn -0.7773 -0.6052 -0.1715
vn -0.7568 -0.6214 -0.2028
vn -0.6693 -0.6346 -0.3864
vn -0.3864 -0.6346 -0.6693
vn 0.2588 0.0000 -0.9659
vn 0.7071 0.0000 -0.7071
vn 0.8660 0.0000 -0.5000
vn 0.9659 0.0000 -0.2588
vn 0.5057 -0.1677 0.8462
vn 0.0005 -0.1405 0.9901
vn -0.5052 -0.1645 0.8471
vn -0.8542 -0.2304 0.4660
vn -0.9333 -0.2575 0.2501
vn -0.8660 0.0000 -0.5000
vn -0.7071 0.0000 -0.7071
vn -0.2588 0.0000 -0.9659
vn 0.0000 1.0000 0.0000
vn 0.0000 0.6798 0.7334
vn -0.3197 0.7689 0.5537
vn -0.3667 0.6798 0.6351
vn -0.5537 0.7689 0.3197
vn -0.6351 0.6798 0.3666
vn -0.6393 0.7689 0.0000
vn -0.7313 0.6779 0.0755
vn -0.7196 0.6671 -0.1928
vn -0.6157 0.7705 -0.1650
vn -0.3667 0.6798 -0.6351
vn -0.5537 0.7689 -0.3197
vn -0.3197 0.7689 -0.5537
vn 0.0000 0.6798 -0.7334
vn 0.0000 0.7689 -0.6393
vn 0.3197 0.7689 -0.5537
vn 0.3667 0.6798 -0.6351
vn 0.5537 0.7689 -0.3197
vn 0.6351 0.6798 -0.3666
vn 0.6393 0.7689 0.0000
vn 0.7313 0.6779 -0.0755
vn 0.7196 0.6671 0.1928
vn 0.6157 0.7705 0.1650
vn 0.6351 0.6798 0.3666
vn 0.3197 0.7689 0.5537
vn 0.3666 0.6798 0.6351
vn 0.0000 0.7689 0.6393
vn -0.1594 0.9478 0.2761
vn -0.2761 0.9478 0.1594
vn -0.3188 0.9478 0.0000
vn -0.2815 0.9566 -0.0754
vn -0.1594 0.9478 -0.2761
vn 0.0000 0.9478 -0.3188
vn 0.1594 0.9478 -0.2761
vn 0.2761 0.9478 -0.1594
vn 0.3188 0.9478 0.0000
vn 0.3308 0.5690 0.7528
vn 0.5537 0.7689 0.3197
vn 0.1594 0.9478 0.2761
vn 0.0000 0.9478 0.3188
vn -0.2761 0.9478 -0.1594
vn 0.2761 0.9478 0.1594
vn 0.7017 -0.5919 0.3966
vn 0.8534 -0.2355 0.4650
vn -0.6351 0.6798 -0.3666
vn -0.9659 0.0000 -0.2588
vn -0.2588 0.0000 0.9659
vn -0.1314 -0.1315 0.9825
vn -0.0445 -0.1588 0.9863
vn 0.1042 0.9941 0.0303
vn 0.1435 0.9886 0.0447
vn 0.1314 0.9901 0.0495
vn 0.3496 -0.0997 -0.9315
vn 0.4633 -0.2336 -0.8548
vn 0.3238 -0.0707 -0.9435
vn -0.7196 0.6671 0.1928
vn -0.3666 0.6798 -0.6351
vn 0.7196 0.6671 -0.1928
vn 0.1650 0.9853 0.0442
vn 0.0910 -0.1780 0.9798
vn 0.1486 -0.1351 -0.9796
vn 0.0642 -0.2322 -0.9705
vn -0.0316 -0.2380 -0.9707
vn -0.3742 0.9219 -0.1003
vn -0.1612 0.9858 -0.0464
vn -0.1001 0.9946 -0.0268
vn -0.1118 -0.2569 -0.9599
vn 0.0692 0.9975 0.0162
vn 0.0561 0.9984 0.0071
vn 0.9319 -0.2630 0.2497
vn 0.1267 0.9913 0.0339
vn 0.1419 -0.1316 0.9811
vn -0.2232 -0.2069 -0.9525
vn -0.2587 0.0000 0.9659
s 1
f 12//1 106//2 116//1
f 12//1 112//3 11//3
f 11//3 113//4 10//5
f 10//5 163//6 74//7
f 8//8 21//9 20//10
f 7//11 20//10 19//12
f 7//11 18//13 6//14
f 6//14 17//15 5//16
f 5//16 139//17 4//18
f 4//18 109//19 80//20
f 3//21 104//22 2//22
f 2//22 106//2 1//2
f 107//23 138//23 117//23
f 24//24 134//25 23//25
f 23//25 135//26 114//26
f 21//9 130//27 20//10
f 20//10 129//28 19//12
f 18//13 129//28 128//29
f 17//15 128//29 125//30
f 139//17 125//30 126//31
f 15//32 119//33 105//33
f 14//34 120//34 13//34
f 25//35 158//35 36//35
f 36//35 155//35 35//35
f 136//35 155//35 156//35
f 32//35 152//35 151//35
f 32//35 150//35 31//35
f 31//35 149//35 30//35
f 30//35 146//35 29//35
f 29//35 147//35 127//35
f 27//35 141//35 26//35
f 26//35 142//35 25//35
f 89//36 60//37 88//38
f 88//38 59//39 90//40
f 90//40 58//41 159//42
f 168//43 58//41 78//44
f 93//45 57//46 56//47
f 94//48 56//47 55//49
f 94//48 54//50 95//51
f 95//51 53//52 96//53
f 96//53 52//54 161//55
f 170//56 52//54 84//57
f 98//58 50//59 99//60
f 99//60 49//61 89//36
f 49//61 72//62 60//37
f 59//39 72//62 71//63
f 59//39 70//64 58//41
f 78//44 70//64 79//65
f 57//46 68//66 56//47
f 56//47 67//67 55//49
f 55//49 66//68 54//50
f 54//50 65//69 53//52
f 53//52 64//70 52//54
f 84//57 64//70 85//71
f 51//72 62//73 50//59
f 49//61 62//73 61//74
f 72//62 61//74 73//35
f 71//63 72//62 73//35
f 70//64 71//63 73//35
f 79//65 73//35 69//75
f 68//66 69//75 73//35
f 67//67 68//66 73//35
f 66//68 67//67 73//35
f 65//69 66//68 73//35
f 64//70 65//69 73//35
f 63//76 64//70 73//35
f 62//73 63//76 73//35
f 61//74 62//73 73//35
f 9//77 163//6 21//9
f 163//6 131//78 21//9
f 133//35 152//35 33//35
f 168//43 57//46 92//79
f 78//44 69//75 57//46
f 3//21 109//19 108//21
f 110//80 122//32 15//32
f 124//35 143//35 27//35
f 170//56 51//72 98//58
f 84//57 63//76 51//72
f 115//81 34//82 86//83
f 22//84 166//85 164//86
f 76//87 75//88 165//89
f 37//36 88//38 48//38
f 47//40 88//38 90//40
f 157//90 90//40 159//42
f 154//23 165//89 167//23
f 45//79 93//45 44//91
f 44//91 94//48 43//48
f 43//48 95//51 42//51
f 42//51 96//53 41//53
f 41//53 161//55 148//92
f 166//85 160//93 100//93
f 39//58 99//60 38//60
f 38//60 89//36 37//36
f 77//43 92//79 45//79
f 145//56 98//58 39//58
f 46//94 86//83 34//82
f 140//95 28//96 173//97
f 82//81 111//81 172//81
f 162//98 103//99 102//100
f 40//101 173//97 28//96
f 16//102 103//99 81//103
f 172//81 83//81 82//81
f 12//1 1//2 106//2
f 12//1 116//1 112//3
f 11//3 112//3 113//4
f 10//5 113//4 163//6
f 8//8 9//77 21//9
f 7//11 8//8 20//10
f 7//11 19//12 18//13
f 6//14 18//13 17//15
f 5//16 17//15 139//17
f 4//18 139//17 109//19
f 3//21 108//21 104//22
f 2//22 104//22 106//2
f 107//23 121//23 138//23
f 24//24 137//24 134//25
f 23//25 134//25 135//26
f 21//9 131//78 130//27
f 20//10 130//27 129//28
f 18//13 19//12 129//28
f 17//15 18//13 128//29
f 139//17 17//15 125//30
f 15//32 122//32 119//33
f 14//34 118//34 120//34
f 25//35 142//35 158//35
f 36//35 158//35 155//35
f 136//35 35//35 155//35
f 32//35 33//35 152//35
f 32//35 151//35 150//35
f 31//35 150//35 149//35
f 30//35 149//35 146//35
f 29//35 146//35 147//35
f 27//35 143//35 141//35
f 26//35 141//35 142//35
f 89//36 49//61 60//37
f 88//38 60//37 59//39
f 90//40 59//39 58//41
f 168//43 159//42 58//41
f 93//45 92//79 57//46
f 94//48 93//45 56//47
f 94//48 55//49 54//50
f 95//51 54//50 53//52
f 96//53 53//52 52//54
f 170//56 161//55 52//54
f 98//58 51//72 50//59
f 99//60 50//59 49//61
f 49//61 61//74 72//62
f 59//39 60//37 72//62
f 59//39 71//63 70//64
f 78//44 58//41 70//64
f 57//46 69//75 68//66
f 56//47 68//66 67//67
f 55//49 67//67 66//68
f 54//50 66//68 65//69
f 53//52 65//69 64//70
f 84//57 52//54 64//70
f 51//72 63//76 62//73
f 49//61 50//59 62//73
f 79//65 70//64 73//35
f 63//76 85//71 64//70
f 9//77 74//7 163//6
f 163//6 132//104 131//78
f 133//35 153//35 152//35
f 168//43 78//44 57//46
f 78//44 79//65 69//75
f 3//21 80//20 109//19
f 110//80 123//80 122//32
f 124//35 144//35 143//35
f 170//56 84//57 51//72
f 84//57 85//71 63//76
f 22//84 169//105 166//85
f 37//36 89//36 88//38
f 47//40 48//38 88//38
f 157//90 47//40 90//40
f 154//23 76//87 165//89
f 45//79 92//79 93//45
f 44//91 93//45 94//48
f 43//48 94//48 95//51
f 42//51 95//51 96//53
f 41//53 96//53 161//55
f 166//85 169//105 160//93
f 39//58 98//58 99//60
f 38//60 99//60 89//36
f 77//43 168//43 92//79
f 145//56 170//56 98//58
f 46//94 91//106 86//83
f 162//98 171//98 103//99
f 40//101 97//107 173//97
f 16//102 102//100 103//99
f 172//81 101//108 83//81
l 9 87
