# Blender v2.79 (sub 0) OBJ File: 'mansion.blend'
# www.blender.org
o Circle.006_Circle.010
v 3.277152 1.705785 -4.109623
v 3.273320 1.705785 -4.128889
v 3.262407 1.705785 -4.145222
v 3.246073 1.705785 -4.156136
v 3.226807 1.705785 -4.159968
v 3.207541 1.705785 -4.156136
v 3.191208 1.705785 -4.145222
v 3.180295 1.705785 -4.128889
v 3.176462 1.705785 -4.109623
v 3.180295 1.705785 -4.090357
v 3.191208 1.705785 -4.074024
v 3.207541 1.705785 -4.063110
v 3.226808 1.705785 -4.059278
v 3.246074 1.705785 -4.063110
v 3.262407 1.705785 -4.074024
v 3.273320 1.705785 -4.090357
v 3.279907 1.732167 -4.109623
v 3.275865 1.732167 -4.129943
v 3.264354 1.732167 -4.147170
v 3.247128 1.732167 -4.158680
v 3.226807 1.732167 -4.162723
v 3.206487 1.732167 -4.158680
v 3.189260 1.732167 -4.147170
v 3.177750 1.732167 -4.129943
v 3.173708 1.732167 -4.109623
v 3.177750 1.732167 -4.089303
v 3.189260 1.732167 -4.072076
v 3.206487 1.732167 -4.060565
v 3.226808 1.732167 -4.056523
v 3.247128 1.732167 -4.060565
v 3.264354 1.732167 -4.072076
v 3.275865 1.732167 -4.089303
v 3.290014 1.760600 -4.109623
v 3.285203 1.760600 -4.133811
v 3.271501 1.760600 -4.154317
v 3.250995 1.760600 -4.168018
v 3.226807 1.760600 -4.172830
v 3.202619 1.760600 -4.168018
v 3.182113 1.760600 -4.154317
v 3.168412 1.760600 -4.133811
v 3.163601 1.760600 -4.109623
v 3.168412 1.760600 -4.085435
v 3.182114 1.760600 -4.064929
v 3.202619 1.760600 -4.051228
v 3.226808 1.760600 -4.046416
v 3.250996 1.760600 -4.051228
v 3.271501 1.760600 -4.064929
v 3.285203 1.760600 -4.085435
v 3.293689 1.791077 -4.109623
v 3.288598 1.791077 -4.135218
v 3.274100 1.791077 -4.156916
v 3.252402 1.791077 -4.171414
v 3.226807 1.791077 -4.176505
v 3.201213 1.791077 -4.171414
v 3.179515 1.791077 -4.156916
v 3.165016 1.791077 -4.135217
v 3.159925 1.791077 -4.109623
v 3.165017 1.791077 -4.084028
v 3.179515 1.791077 -4.062330
v 3.201213 1.791077 -4.047832
v 3.226808 1.791077 -4.042741
v 3.252402 1.791077 -4.047832
v 3.274100 1.791077 -4.062330
v 3.288598 1.791077 -4.084029
v 3.307810 1.832019 -4.109623
v 3.301644 1.811484 -4.140622
v 3.284085 1.832019 -4.166901
v 3.257806 1.811484 -4.184460
v 3.226807 1.832019 -4.190626
v 3.195809 1.811484 -4.184460
v 3.169529 1.832019 -4.166901
v 3.151970 1.811484 -4.140621
v 3.145804 1.832019 -4.109623
v 3.151970 1.811484 -4.078624
v 3.169530 1.832019 -4.052345
v 3.195809 1.811484 -4.034786
v 3.226808 1.832019 -4.028620
v 3.257806 1.811484 -4.034786
v 3.284085 1.832019 -4.052345
v 3.301645 1.811484 -4.078625
v 3.304592 1.831611 -4.109623
v 3.298671 1.811892 -4.139390
v 3.281809 1.831611 -4.164625
v 3.256574 1.811892 -4.181487
v 3.226807 1.831611 -4.187407
v 3.197040 1.811892 -4.181487
v 3.171805 1.831611 -4.164625
v 3.154944 1.811892 -4.139390
v 3.149023 1.831611 -4.109623
v 3.154944 1.811892 -4.079856
v 3.171805 1.831611 -4.054621
v 3.197041 1.811892 -4.037759
v 3.226808 1.831611 -4.031838
v 3.256574 1.811892 -4.037759
v 3.281810 1.831611 -4.054621
v 3.298671 1.811892 -4.079856
v 3.273787 1.777748 -4.109623
v 3.270211 1.764268 -4.127602
v 3.260027 1.777748 -4.142843
v 3.244786 1.764268 -4.153027
v 3.226807 1.777748 -4.156603
v 3.208829 1.764268 -4.153027
v 3.193587 1.777748 -4.142843
v 3.183403 1.764268 -4.127601
v 3.179827 1.777748 -4.109623
v 3.183403 1.764268 -4.091644
v 3.193588 1.777748 -4.076403
v 3.208829 1.764268 -4.066219
v 3.226807 1.777748 -4.062643
v 3.244786 1.764268 -4.066219
v 3.260027 1.777748 -4.076403
v 3.270211 1.764268 -4.091645
vn -0.3806 -0.1038 0.9189
vn -0.6891 -0.2242 0.6891
vn -0.7033 -0.1038 0.7033
vn -0.9189 -0.1038 0.3806
vn -0.9745 -0.2242 0.0000
vn -0.9946 -0.1039 0.0000
vn -0.9189 -0.1038 -0.3806
vn -0.6891 -0.2242 -0.6891
vn -0.7033 -0.1039 -0.7033
vn -0.3806 -0.1038 -0.9189
vn 0.0000 -0.2242 -0.9745
vn 0.0000 -0.1038 -0.9946
vn 0.9946 -0.1038 0.0000
vn 0.9004 -0.2242 0.3729
vn 0.9189 -0.1038 0.3806
vn 0.7033 -0.1038 -0.7033
vn 0.3729 -0.2242 -0.9004
vn 0.6891 -0.2242 -0.6891
vn 0.7033 -0.1038 0.7033
vn 0.3729 -0.2242 0.9004
vn 0.3806 -0.1038 0.9189
vn 0.9189 -0.1039 -0.3806
vn 0.9745 -0.2242 0.0000
vn 0.0000 -0.1038 0.9946
vn -0.3729 -0.2242 0.9004
vn -0.9004 -0.2242 0.3729
vn -0.9004 -0.2242 -0.3729
vn -0.3729 -0.2242 -0.9004
vn 0.3806 -0.1038 -0.9189
vn 0.6891 -0.2242 0.6891
vn 0.9004 -0.2242 -0.3729
vn 0.0000 -0.2242 0.9745
vn 0.3728 -0.2257 -0.9000
vn 0.6888 -0.2257 0.6888
vn 0.6888 -0.2257 -0.6889
vn 0.9000 -0.2257 -0.3728
vn 0.0000 -0.2257 0.9742
vn -0.6888 -0.2257 0.6888
vn -0.9742 -0.2257 0.0000
vn -0.9000 -0.2257 -0.3728
vn -0.6888 -0.2257 -0.6888
vn 0.0000 -0.2257 -0.9742
vn 0.9742 -0.2257 0.0000
vn 0.9000 -0.2257 0.3728
vn 0.3728 -0.2257 0.9000
vn -0.3728 -0.2257 0.9000
vn -0.9000 -0.2257 0.3728
vn -0.6776 -0.2859 -0.6776
vn -0.3728 -0.2257 -0.9000
vn 0.0000 -0.2859 -0.9583
vn 0.8601 -0.3651 0.3562
vn 0.3562 -0.3651 -0.8601
vn 0.6776 -0.2859 -0.6776
vn 0.3562 -0.3651 0.8601
vn 0.9583 -0.2859 0.0000
vn -0.3562 -0.3651 0.8601
vn -0.8601 -0.3651 0.3562
vn -0.8601 -0.3651 -0.3562
vn -0.3562 -0.3651 -0.8601
vn 0.6776 -0.2859 0.6776
vn 0.8601 -0.3651 -0.3562
vn 0.0000 -0.2859 0.9583
vn -0.6776 -0.2859 0.6776
vn -0.9583 -0.2859 0.0000
vn -0.9112 0.1651 -0.3774
vn -0.3774 0.1651 -0.9112
vn 0.3774 0.1651 -0.9112
vn 0.9112 0.1651 0.3774
vn 0.4884 0.7231 0.4884
vn 0.9112 0.1651 -0.3774
vn 0.3774 0.1651 0.9112
vn 0.0000 0.7231 0.6907
vn -0.3774 0.1651 0.9112
vn -0.4884 0.7231 0.4884
vn -0.9112 0.1651 0.3774
vn -0.6908 0.7230 0.0000
vn -0.4884 0.7231 -0.4884
vn -0.0001 0.7231 -0.6907
vn 0.4884 0.7231 -0.4884
vn 0.6907 0.7231 0.0000
vn 0.4145 0.8937 -0.1717
vn 0.4605 0.8876 0.0000
vn 0.4145 0.8937 0.1717
vn 0.3257 0.8876 0.3257
vn -0.0000 0.8876 0.4606
vn -0.4145 0.8937 -0.1717
vn -0.3257 0.8876 0.3257
vn -0.3257 0.8876 -0.3257
vn -0.1717 0.8937 -0.4145
vn -0.4145 0.8937 0.1717
vn -0.4606 0.8876 0.0000
vn 0.1717 0.8937 -0.4145
vn 0.1717 0.8937 0.4145
vn -0.1717 0.8937 0.4145
vn 0.0000 0.8876 -0.4606
vn 0.3257 0.8876 -0.3257
vn 0.6188 0.4839 -0.6188
vn 0.7757 0.5431 -0.3213
vn 0.8751 0.4839 0.0000
vn 0.7757 0.5431 0.3213
vn 0.6188 0.4839 0.6188
vn 0.3213 0.5431 0.7757
vn 0.0000 0.4839 0.8751
vn -0.3213 0.5431 0.7757
vn -0.6188 0.4839 -0.6188
vn -0.6188 0.4839 0.6188
vn -0.7757 0.5431 0.3213
vn 0.0000 0.4839 -0.8751
vn -0.8751 0.4839 0.0000
vn -0.7757 0.5431 -0.3213
vn -0.3213 0.5431 -0.7757
vn 0.3213 0.5431 -0.7757
s 1
f 12//1 27//2 11//3
f 10//4 25//5 9//6
f 8//7 23//8 7//9
f 6//10 21//11 5//12
f 1//13 32//14 16//15
f 3//16 20//17 19//18
f 15//19 30//20 14//21
f 2//22 17//23 1//13
f 13//24 28//25 12//1
f 11//3 26//26 10//4
f 8//7 25//5 24//27
f 6//10 23//8 22//28
f 5//12 20//17 4//29
f 16//15 31//30 15//19
f 3//16 18//31 2//22
f 14//21 29//32 13//24
f 21//11 36//33 20//17
f 32//14 47//34 31//30
f 18//31 35//35 34//36
f 30//20 45//37 29//32
f 28//25 43//38 27//2
f 26//26 41//39 25//5
f 23//8 40//40 39//41
f 22//28 37//42 21//11
f 32//14 33//43 48//44
f 20//17 35//35 19//18
f 31//30 46//45 30//20
f 17//23 34//36 33//43
f 29//32 44//46 28//25
f 27//2 42//47 26//26
f 25//5 40//40 24//27
f 40//40 55//48 39//41
f 38//49 53//50 37//42
f 33//43 64//51 48//44
f 35//35 52//52 51//53
f 47//34 62//54 46//45
f 34//36 49//55 33//43
f 45//37 60//56 44//46
f 43//38 58//57 42//47
f 41//39 56//58 40//40
f 38//49 55//48 54//59
f 37//42 52//52 36//33
f 47//34 64//51 63//60
f 34//36 51//53 50//61
f 46//45 61//62 45//37
f 44//46 59//63 43//38
f 42//47 57//64 41//39
f 57//64 72//65 56//58
f 55//48 70//66 54//59
f 53//50 68//67 52//52
f 63//60 80//68 79//69
f 51//53 66//70 50//61
f 61//62 78//71 77//72
f 59//63 76//73 75//74
f 57//64 74//75 73//76
f 55//48 72//65 71//77
f 53//50 70//66 69//78
f 49//55 80//68 64//51
f 51//53 68//67 67//79
f 63//60 78//71 62//54
f 49//55 66//70 65//80
f 61//62 76//73 60//56
f 59//63 74//75 58//57
f 73//76 90//81 89//82
f 71//77 88//83 87//84
f 70//66 85//85 69//78
f 65//80 96//86 80//68
f 68//67 83//87 67//79
f 78//71 95//88 94//89
f 65//80 82//90 81//91
f 77//72 92//92 76//73
f 75//74 90//81 74//75
f 73//76 88//83 72//65
f 71//77 86//93 70//66
f 69//78 84//94 68//67
f 79//69 96//86 95//88
f 67//79 82//90 66//70
f 77//72 94//89 93//95
f 76//73 91//96 75//74
f 90//81 107//97 106//98
f 88//83 105//99 104//100
f 86//93 103//101 102//102
f 84//94 101//103 100//104
f 96//86 111//105 95//88
f 82//90 99//106 98//107
f 94//89 109//108 93//95
f 92//92 107//97 91//96
f 90//81 105//99 89//82
f 88//83 103//101 87//84
f 86//93 101//103 85//85
f 96//86 97//109 112//110
f 84//94 99//106 83//87
f 94//89 111//105 110//111
f 82//90 97//109 81//91
f 92//92 109//108 108//112
f 23//8 38//49 22//28
f 12//1 28//25 27//2
f 10//4 26//26 25//5
f 8//7 24//27 23//8
f 6//10 22//28 21//11
f 1//13 17//23 32//14
f 3//16 4//29 20//17
f 15//19 31//30 30//20
f 2//22 18//31 17//23
f 13//24 29//32 28//25
f 11//3 27//2 26//26
f 8//7 9//6 25//5
f 6//10 7//9 23//8
f 5//12 21//11 20//17
f 16//15 32//14 31//30
f 3//16 19//18 18//31
f 14//21 30//20 29//32
f 21//11 37//42 36//33
f 32//14 48//44 47//34
f 18//31 19//18 35//35
f 30//20 46//45 45//37
f 28//25 44//46 43//38
f 26//26 42//47 41//39
f 23//8 24//27 40//40
f 22//28 38//49 37//42
f 32//14 17//23 33//43
f 20//17 36//33 35//35
f 31//30 47//34 46//45
f 17//23 18//31 34//36
f 29//32 45//37 44//46
f 27//2 43//38 42//47
f 25//5 41//39 40//40
f 40//40 56//58 55//48
f 38//49 54//59 53//50
f 33//43 49//55 64//51
f 35//35 36//33 52//52
f 47//34 63//60 62//54
f 34//36 50//61 49//55
f 45//37 61//62 60//56
f 43//38 59//63 58//57
f 41//39 57//64 56//58
f 38//49 39//41 55//48
f 37//42 53//50 52//52
f 47//34 48//44 64//51
f 34//36 35//35 51//53
f 46//45 62//54 61//62
f 44//46 60//56 59//63
f 42//47 58//57 57//64
f 57//64 73//76 72//65
f 55//48 71//77 70//66
f 53//50 69//78 68//67
f 63//60 64//51 80//68
f 51//53 67//79 66//70
f 61//62 62//54 78//71
f 59//63 60//56 76//73
f 57//64 58//57 74//75
f 55//48 56//58 72//65
f 53//50 54//59 70//66
f 49//55 65//80 80//68
f 51//53 52//52 68//67
f 63//60 79//69 78//71
f 49//55 50//61 66//70
f 61//62 77//72 76//73
f 59//63 75//74 74//75
f 73//76 74//75 90//81
f 71//77 72//65 88//83
f 70//66 86//93 85//85
f 65//80 81//91 96//86
f 68//67 84//94 83//87
f 78//71 79//69 95//88
f 65//80 66//70 82//90
f 77//72 93//95 92//92
f 75//74 91//96 90//81
f 73//76 89//82 88//83
f 71//77 87//84 86//93
f 69//78 85//85 84//94
f 79//69 80//68 96//86
f 67//79 83//87 82//90
f 77//72 78//71 94//89
f 76//73 92//92 91//96
f 90//81 91//96 107//97
f 88//83 89//82 105//99
f 86//93 87//84 103//101
f 84//94 85//85 101//103
f 96//86 112//110 111//105
f 82//90 83//87 99//106
f 94//89 110//111 109//108
f 92//92 108//112 107//97
f 90//81 106//98 105//99
f 88//83 104//100 103//101
f 86//93 102//102 101//103
f 96//86 81//91 97//109
f 84//94 100//104 99//106
f 94//89 95//88 111//105
f 82//90 98//107 97//109
f 92//92 93//95 109//108
f 23//8 39//41 38//49
