# Blender v2.79 (sub 0) OBJ File: 'mansion.blend'
# www.blender.org
o Plane.019_Plane.021
v -2.161550 2.196607 -0.758288
v -2.161550 2.196607 -0.771303
v -2.161550 2.201191 -0.774190
v -2.161550 2.205789 -0.774190
v -2.161550 2.207093 -0.770010
v -2.161550 2.226961 -0.771042
v -2.005356 2.196607 -0.757790
v -1.984356 2.196607 -0.770091
v -1.982565 2.201191 -0.771157
v -1.982565 2.205789 -0.771157
v -1.985705 2.208295 -0.769288
v -1.985184 2.226961 -0.769598
v -2.161550 2.245627 -0.767409
v -2.161550 2.248680 -0.757055
v -2.161550 2.248680 -0.774265
v -2.161550 2.251327 -0.774265
v -2.161550 2.252867 -0.751387
v -1.993480 2.245627 -0.764659
v -2.003514 2.248680 -0.754575
v -1.984748 2.248680 -0.771736
v -1.984748 2.251327 -0.771736
v -2.007433 2.252867 -0.752224
v -2.178548 2.196607 -0.539613
v -2.178548 2.196607 -0.526598
v -2.178548 2.201191 -0.523711
v -2.178548 2.205789 -0.523711
v -2.178548 2.207093 -0.527892
v -2.178548 2.226961 -0.526858
v -2.005356 2.196607 -0.540112
v -1.984356 2.196607 -0.527810
v -1.982565 2.201191 -0.526744
v -1.982565 2.205789 -0.526744
v -1.985705 2.208295 -0.528613
v -1.985184 2.226961 -0.528303
v -2.178548 2.245627 -0.530492
v -2.178548 2.248680 -0.540845
v -2.178548 2.248680 -0.525725
v -2.178548 2.251327 -0.525725
v -2.178548 2.252867 -0.546514
v -1.993480 2.245627 -0.533242
v -2.003514 2.248680 -0.543326
v -1.984748 2.248680 -0.528254
v -1.984748 2.251327 -0.528254
v -2.007433 2.252867 -0.545677
v -2.150703 1.958402 -0.555498
v -2.150703 1.958402 0.716978
v -2.150703 1.967739 -0.555498
v -2.150703 1.967739 0.716978
v -2.156294 1.958402 -0.551799
v -2.156294 1.958402 0.716978
v -2.147546 1.979081 -0.551799
v -2.147546 1.979081 0.716978
v -2.145518 1.967739 -0.551799
v -2.145518 1.967739 0.716978
v -2.145518 1.975703 -0.551799
v -2.145518 1.975703 0.716978
v -2.147529 1.971960 -0.664229
v -2.147613 1.971960 0.717976
v -2.145896 1.975709 -0.659942
v -2.145551 1.975709 0.717976
v -2.144599 1.980416 -0.657784
v -2.143915 1.980416 0.717976
v -2.144599 1.984814 -0.657784
v -2.143915 1.984814 0.717976
v -2.146979 1.988271 -0.659616
v -2.146918 1.988271 0.717976
v -2.153655 1.991744 -0.664758
v -2.155345 1.991744 0.717976
v -2.165601 2.196607 -0.652208
v -2.142993 2.196607 -0.623343
v -2.141732 2.201191 -0.622071
v -2.141732 2.205789 -0.622071
v -2.143942 2.208295 -0.624301
v -2.143575 2.226961 -0.623931
v -2.150972 2.196607 0.730017
v -2.149818 2.196607 0.730017
v -2.149408 2.201191 0.730017
v -2.149408 2.205789 0.730017
v -2.150128 2.208295 0.730017
v -2.150009 2.226961 0.730017
v -2.149712 2.248680 -0.639768
v -2.152675 2.248680 -0.637248
v -2.152675 2.251327 -0.637248
v -2.156543 2.252867 -0.643024
v -2.151913 2.245627 0.730017
v -2.154876 2.245627 0.730017
v -2.154876 2.248274 0.730017
v -2.158743 2.249814 0.730017
v -1.984356 2.196607 -0.770091
v -1.984356 2.196607 -0.770091
v -1.982565 2.201191 -0.771157
v -1.982565 2.205789 -0.771157
v -1.982565 2.205789 -0.771157
v -1.982565 2.205789 -0.771157
v -1.985705 2.208295 -0.769288
v -1.985705 2.208295 -0.769288
v -1.985705 2.208295 -0.769288
v -1.985184 2.226961 -0.769598
v -2.161550 2.207093 -0.770010
v -2.161550 2.205789 -0.774190
v -2.161550 2.196607 -0.771303
v -1.984748 2.248680 -0.771736
v -1.984748 2.248680 -0.771736
v -1.984748 2.251327 -0.771736
v -1.984748 2.251327 -0.771736
v -2.161550 2.251327 -0.774265
v -2.161550 2.248680 -0.774265
v -2.161550 2.248680 -0.757055
v -2.003514 2.248680 -0.754575
v -2.161550 2.245627 -0.767409
v -1.993480 2.245627 -0.764659
v -1.993480 2.245627 -0.764659
v -1.984356 2.196607 -0.527810
v -1.984356 2.196607 -0.527810
v -1.982565 2.201191 -0.526744
v -1.982565 2.205789 -0.526744
v -1.982565 2.205789 -0.526744
v -1.982565 2.205789 -0.526744
v -1.985705 2.208295 -0.528613
v -1.985705 2.208295 -0.528613
v -1.985705 2.208295 -0.528613
v -1.985184 2.226961 -0.528303
v -2.178548 2.207093 -0.527892
v -2.178548 2.205789 -0.523711
v -2.178548 2.196607 -0.526598
v -1.984748 2.248680 -0.528254
v -1.984748 2.248680 -0.528254
v -1.984748 2.251327 -0.528254
v -1.984748 2.251327 -0.528254
v -2.178548 2.251327 -0.525725
v -2.178548 2.248680 -0.525725
v -2.178548 2.248680 -0.540845
v -2.003514 2.248680 -0.543326
v -2.178548 2.245627 -0.530492
v -1.993480 2.245627 -0.533242
v -1.993480 2.245627 -0.533242
v -2.150703 1.958402 0.716978
v -2.150703 1.958402 -0.555498
v -2.150703 1.967739 0.716978
v -2.150703 1.967739 -0.555498
v -2.145518 1.967739 0.716978
v -2.145518 1.967739 -0.551799
v -2.145518 1.975703 0.716978
v -2.145518 1.975703 -0.551799
v -2.143915 1.984814 0.717976
v -2.144599 1.984814 -0.657784
v -2.143942 2.208295 -0.624301
v -2.150128 2.208295 0.730017
v -2.141732 2.205789 -0.622071
v -2.149408 2.205789 0.730017
v -2.142993 2.196607 -0.623343
v -2.149818 2.196607 0.730017
v -2.152675 2.251327 -0.637248
v -2.154876 2.248274 0.730017
v -2.152675 2.248680 -0.637248
v -2.154876 2.245627 0.730017
v -2.149712 2.248680 -0.639768
v -2.151913 2.245627 0.730017
vt 0.001396 0.866617
vt 0.882053 0.859866
vt 0.882053 0.866609
vt 0.882053 0.866609
vt 0.003949 0.870647
vt 0.001396 0.866617
vt 0.003956 0.850364
vt 0.882053 0.856119
vt 0.003956 0.856120
vt 0.882053 0.850359
vt 0.003956 0.847515
vt 0.882053 0.847512
vt 0.003956 0.856120
vt 0.882053 0.859866
vt 0.001396 0.859868
vt 0.001396 0.859868
vt 0.882053 0.870650
vt 0.882053 0.850359
vt 0.003956 0.850364
vt 0.882053 0.856119
vt 0.577062 0.749745
vt 0.686654 0.763390
vt 0.576880 0.762599
vt 0.686654 0.763390
vt 0.576842 0.765428
vt 0.576880 0.762599
vt 0.688661 0.765432
vt 0.576842 0.768398
vt 0.576842 0.765428
vt 0.687517 0.771448
vt 0.576869 0.771899
vt 0.576869 0.771899
vt 0.674037 0.779548
vt 0.576962 0.780308
vt 0.855443 0.744164
vt 0.981592 0.750139
vt 0.861191 0.750142
vt 0.852804 0.721880
vt 0.990154 0.732519
vt 0.852628 0.732522
vt 0.852804 0.721880
vt 0.991042 0.719585
vt 0.989977 0.721876
vt 0.851738 0.716969
vt 0.991042 0.719585
vt 0.851739 0.719590
vt 0.852346 0.714164
vt 0.991042 0.716966
vt 0.673516 0.705911
vt 0.577440 0.717657
vt 0.577831 0.702846
vt 0.687835 0.718941
vt 0.577421 0.719367
vt 0.577440 0.717657
vt 0.577421 0.719367
vt 0.675724 0.731778
vt 0.577456 0.730487
vt 0.675724 0.731778
vt 0.577255 0.737459
vt 0.577456 0.730487
vt 0.682010 0.738770
vt 0.577255 0.737459
vt 0.987339 0.744161
vt 0.855443 0.744164
vt 0.852601 0.762347
vt 0.980252 0.775302
vt 0.862531 0.775305
vt 0.852601 0.760838
vt 0.991372 0.762343
vt 0.852601 0.762347
vt 0.852601 0.760838
vt 0.981592 0.750139
vt 0.991372 0.760834
vt 0.704502 0.734852
vt 0.839786 0.720011
vt 0.840317 0.733118
vt 0.704292 0.717802
vt 0.839786 0.720011
vt 0.704329 0.720878
vt 0.704292 0.714572
vt 0.841972 0.717794
vt 0.704292 0.717802
vt 0.840726 0.711254
vt 0.841972 0.714564
vt 0.704319 0.710767
vt 0.826060 0.702469
vt 0.840726 0.711254
vt 0.704875 0.768268
vt 0.825368 0.779479
vt 0.705220 0.782907
vt 0.704875 0.768268
vt 0.840988 0.764961
vt 0.841008 0.766820
vt 0.704855 0.766409
vt 0.827831 0.754342
vt 0.840988 0.764961
vt 0.704688 0.748208
vt 0.827831 0.754342
vt 0.704880 0.755788
vt 0.834689 0.746765
vt 0.704688 0.748208
vt 0.859357 0.702195
vt 0.990434 0.714160
vt 0.852346 0.714164
vt 0.004712 0.841701
vt 0.958930 0.846232
vt 0.001739 0.844653
vt 0.006212 0.838172
vt 0.958935 0.843135
vt 0.006217 0.834992
vt 0.958940 0.839549
vt 0.006217 0.834992
vt 0.958947 0.833086
vt 0.958944 0.836381
vt 0.004951 0.831955
vt 0.958954 0.826506
vt 0.000002 0.505612
vt 0.979578 0.492082
vt 0.991037 0.508410
vt 0.000004 0.478528
vt 0.979847 0.478574
vt 0.000004 0.478528
vt 0.978222 0.476139
vt 0.979847 0.478574
vt 0.000004 0.476641
vt 0.978220 0.472795
vt 0.978222 0.476139
vt 0.000001 0.469988
vt 0.979130 0.469384
vt 0.979130 0.469384
vt 0.000000 0.469159
vt 1.000000 0.452995
vt 0.000002 0.512644
vt 0.989226 0.512469
vt 0.993433 0.515497
vt 0.000000 0.509632
vt 0.989227 0.510537
vt 0.989226 0.512469
vt 0.989227 0.510537
vt 0.000002 0.505612
vt 0.991037 0.508410
vt 0.687162 0.751333
vt 0.688661 0.765432
vt 0.688661 0.768403
vt 0.687517 0.771448
vt 0.987339 0.744161
vt 0.989977 0.721876
vt 0.851739 0.719590
vt 0.990434 0.714160
vt 0.687835 0.718941
vt 0.687816 0.720651
vt 0.687816 0.720651
vt 0.682010 0.738770
vt 0.991372 0.762343
vt 0.991372 0.760834
vt 0.861191 0.750142
vt 0.704329 0.720878
vt 0.841972 0.717794
vt 0.704319 0.710767
vt 0.704408 0.701625
vt 0.841008 0.766820
vt 0.704855 0.766409
vt 0.704880 0.755788
vt 0.834689 0.746765
vt 0.983423 0.702192
vt 0.958944 0.836381
vt 0.001396 0.826508
vt 0.000003 0.492036
vt 0.000004 0.476641
vt 0.000002 0.473314
vt 0.000001 0.469988
vt 0.000000 0.509632
vt 0.000001 0.507717
vt 0.000001 0.507717
vn 1.0000 0.0000 0.0000
vn 0.0000 -1.0000 0.0000
vn 0.8573 0.5149 0.0000
vn 0.8574 0.5147 0.0000
vn 0.0101 0.0737 -0.9972
vn 0.0079 -0.0193 -0.9998
vn 0.0044 -0.0519 -0.9986
vn 0.0133 0.6133 -0.7897
vn -0.0051 0.9526 -0.3042
vn -0.0053 0.9546 -0.2979
vn 0.0169 0.0000 -0.9998
vn 0.0119 -0.2739 -0.9617
vn 0.0163 -0.2374 -0.9713
vn 0.0058 -0.5329 -0.8461
vn 0.1491 0.9777 0.1477
vn 0.1516 0.9777 -0.1451
vn 0.1514 0.9777 0.1454
vn 0.9996 -0.0279 0.0000
vn 0.9842 0.1769 0.0000
vn 0.6239 0.7815 0.0000
vn 0.9851 -0.1716 0.0000
vn 0.9315 -0.3638 0.0000
vn 0.0333 0.9986 -0.0397
vn -0.0002 0.9977 -0.0680
vn -0.0003 0.9977 -0.0672
vn 0.0143 0.0000 -0.9999
vn 0.0044 0.9591 -0.2829
vn 0.0044 0.9592 -0.2828
vn 0.0084 0.2552 -0.9668
vn 0.0161 0.1910 -0.9814
vn 0.9138 0.4061 0.0000
vn 0.0397 0.9985 0.0366
vn 0.0326 0.9984 0.0455
vn 0.0092 0.0734 0.9973
vn 0.0072 -0.0190 0.9998
vn 0.0074 0.1028 0.9947
vn -0.0046 0.9528 0.3037
vn 0.0121 0.6120 0.7908
vn -0.0048 0.9546 0.2979
vn 0.0109 -0.2742 0.9616
vn 0.0155 0.0000 0.9999
vn 0.0149 -0.2365 0.9715
vn 0.0154 -0.1016 0.9947
vn -0.0002 0.9972 0.0747
vn -0.0003 0.9973 0.0739
vn 0.0130 0.0000 0.9999
vn 0.0040 0.9591 0.2829
vn 0.0040 0.9592 0.2828
vn 0.0076 0.2553 0.9668
vn 0.0146 0.1910 0.9814
vn 0.9343 -0.3565 -0.0000
vn 0.8763 -0.4817 -0.0002
vn 0.9167 -0.3994 0.0000
vn 0.9887 -0.1496 -0.0003
vn 0.9136 -0.4065 -0.0003
vn 1.0000 0.0000 -0.0005
vn 0.9860 -0.1665 -0.0005
vn 0.8237 0.5670 -0.0000
vn 0.5838 0.8119 -0.0002
vn 0.7549 0.6558 -0.0004
vn 0.6036 0.7973 0.0003
vn 0.3813 0.9244 0.0000
vn 0.9946 0.1033 0.0047
vn 0.9886 0.1508 0.0032
vn 0.9619 0.2734 0.0021
vn 0.9999 -0.0065 0.0047
vn 0.9998 -0.0197 0.0045
vn 0.9609 0.2769 0.0054
vn 0.7489 0.6626 0.0034
vn 0.7486 0.6630 0.0034
vn 1.0000 0.0000 0.0056
vn 0.9895 -0.1445 0.0053
vn 1.0000 0.0000 0.0057
vn 0.9959 -0.0896 0.0056
vn 0.9638 -0.2664 0.0049
vn 0.3700 0.9290 0.0027
vn 0.3666 0.9304 0.0027
vn 1.0000 0.0000 0.0016
vn 0.0019 1.0000 0.0022
vn 0.0000 1.0000 0.0022
vn 0.0081 0.1029 -0.9946
vn 0.0134 0.6084 -0.7935
vn 0.0168 -0.1019 -0.9946
vn 0.1491 0.9777 -0.1476
vn 0.9996 -0.0278 0.0000
vn 0.0373 0.9987 -0.0354
vn 0.0041 -0.0519 0.9986
vn 0.0123 0.6075 0.7942
vn 0.0052 -0.5329 0.8461
vn 0.4612 0.8873 0.0005
vn 0.9988 0.0476 0.0047
vn 0.9611 0.2762 0.0054
vn 0.9990 -0.0446 0.0056
vn 0.3701 0.9290 0.0027
s off
f 138/1/1 139/2/1 137/3/1
f 46/4/2 49/5/2 45/6/2
f 144/7/1 141/8/1 142/9/1
f 56/10/3 51/11/3 52/12/3
f 53/13/2 48/14/2 47/15/2
f 138/1/1 140/16/1 139/2/1
f 46/4/2 50/17/2 49/5/2
f 144/7/1 143/18/1 141/8/1
f 56/10/4 55/19/4 51/11/4
f 53/13/2 54/20/2 48/14/2
s 1
f 6/21/5 96/22/6 5/23/7
f 95/24/8 4/25/9 99/26/10
f 92/27/11 3/28/12 100/29/11
f 3/28/12 90/30/13 2/31/14
f 101/32/2 7/33/2 1/34/2
f 135/35/15 109/36/16 133/37/17
f 120/38/18 12/39/19 122/40/19
f 119/41/20 94/42/20 11/43/20
f 115/44/21 10/45/1 116/46/1
f 114/47/22 9/48/21 115/44/21
f 22/49/23 16/50/24 17/51/25
f 104/52/26 15/53/26 106/54/26
f 107/55/2 19/56/2 14/57/2
f 109/58/16 110/59/27 108/60/28
f 112/61/29 6/21/5 13/62/30
f 122/40/19 18/63/31 136/64/31
f 129/65/32 22/66/23 44/67/33
f 127/68/1 21/69/1 128/70/1
f 126/71/2 19/72/2 102/73/2
f 28/74/34 121/75/35 34/76/36
f 26/77/37 33/78/38 123/79/39
f 25/80/40 32/81/41 124/82/41
f 25/80/40 30/83/42 31/84/43
f 125/85/2 29/86/2 113/87/2
f 38/88/44 44/89/33 39/90/45
f 130/91/46 42/92/46 43/93/46
f 131/94/2 41/95/2 126/96/2
f 134/97/47 133/98/17 132/99/48
f 28/74/34 40/100/49 35/101/50
f 29/102/2 89/103/2 113/104/2
f 59/105/51 58/106/52 57/107/53
f 61/108/54 60/109/55 59/105/51
f 146/110/56 62/111/57 61/108/54
f 63/112/58 66/113/59 64/114/60
f 65/115/61 68/116/62 66/113/59
f 85/117/63 74/118/64 157/119/65
f 74/118/64 79/120/66 73/121/67
f 148/122/68 72/123/69 147/124/70
f 150/125/71 71/126/72 149/127/73
f 71/126/72 76/128/74 70/129/75
f 151/130/2 75/131/2 69/132/2
f 88/133/76 83/134/77 84/135/77
f 154/136/78 82/137/78 153/138/78
f 155/139/79 158/140/80 81/141/79
f 6/21/5 98/142/81 96/22/6
f 95/24/8 93/143/82 4/25/9
f 92/27/11 91/144/83 3/28/12
f 3/28/12 91/144/83 90/30/13
f 101/32/2 89/145/2 7/33/2
f 135/35/15 111/146/84 109/36/16
f 120/38/18 97/147/85 12/39/19
f 119/41/20 117/148/20 94/42/20
f 115/44/21 9/48/21 10/45/1
f 114/47/22 8/149/22 9/48/21
f 22/49/23 105/150/86 16/50/24
f 104/52/26 103/151/26 15/53/26
f 107/55/2 102/152/2 19/56/2
f 109/58/16 111/153/84 110/59/27
f 112/61/29 98/142/81 6/21/5
f 122/40/19 12/39/19 18/63/31
f 129/65/32 105/154/86 22/66/23
f 127/68/1 20/155/1 21/69/1
f 126/71/2 41/156/2 19/72/2
f 28/74/34 27/157/87 121/75/35
f 26/77/37 118/158/88 33/78/38
f 25/80/40 31/84/43 32/81/41
f 25/80/40 24/159/89 30/83/42
f 125/85/2 23/160/2 29/86/2
f 38/88/44 129/161/32 44/89/33
f 130/91/46 37/162/46 42/92/46
f 131/94/2 36/163/2 41/95/2
f 134/97/47 135/164/15 133/98/17
f 28/74/34 34/76/36 40/100/49
f 29/102/2 7/165/2 89/103/2
f 59/105/51 60/109/55 58/106/52
f 61/108/54 62/111/57 60/109/55
f 146/110/56 145/166/56 62/111/57
f 63/112/58 65/115/61 66/113/59
f 65/115/61 67/167/90 68/116/62
f 85/117/63 80/168/91 74/118/64
f 74/118/64 80/168/91 79/120/66
f 148/122/68 78/169/92 72/123/69
f 150/125/71 77/170/93 71/126/72
f 71/126/72 77/170/93 76/128/74
f 151/130/2 152/171/2 75/131/2
f 88/133/76 87/172/94 83/134/77
f 154/136/78 86/173/78 82/137/78
f 155/139/79 156/174/80 158/140/80
