# Blender v2.79 (sub 0) OBJ File: 'mansion.blend'
# www.blender.org
o Plane.027_Plane.025
v 0.086854 -0.299492 -4.281226
v 0.815210 -0.299492 -4.304443
v 0.086854 0.176235 -4.278775
v 0.815210 0.176235 -4.293309
v 0.329639 -0.299492 -4.259480
v 0.572425 -0.299492 -4.259480
v 0.572425 0.176235 -4.259480
v 0.329639 0.176235 -4.259480
v 0.086854 0.017659 -4.284054
v 0.086854 -0.140917 -4.284054
v 0.815210 -0.140917 -4.292579
v 0.815210 0.017659 -4.292579
v 0.329639 -0.140917 -4.248539
v 0.329639 0.017659 -4.248539
v 0.572425 -0.140917 -4.248539
v 0.572425 0.017659 -4.248539
vt 1.000000 0.641159
vt 0.666667 0.961738
vt 0.666667 0.641159
vt 0.000000 0.641159
vt 0.333333 0.961738
vt 0.000000 0.961738
vt 0.333333 0.641159
vt 0.666667 0.000000
vt 1.000000 0.320579
vt 0.666667 0.320579
vt 0.333333 0.000000
vt 0.000000 0.320579
vt 0.000000 0.000000
vt 0.333333 0.320579
vt 1.000000 0.961738
vt 1.000000 0.000000
vn 0.1656 0.0139 0.9861
vn 0.0823 0.0570 0.9950
vn 0.0894 0.0342 0.9954
vn -0.1241 0.0020 0.9922
vn -0.0606 0.0501 0.9969
vn -0.0792 -0.0331 0.9963
vn -0.0724 0.0343 0.9968
vn 0.0904 -0.0696 0.9935
vn 0.1795 -0.0358 0.9831
vn 0.0894 -0.0342 0.9954
vn -0.0624 -0.0529 0.9966
vn -0.1272 -0.0069 0.9918
vn -0.0892 0.0177 0.9958
vn -0.0724 -0.0343 0.9968
vn 0.1380 0.0045 0.9904
vn 0.1816 -0.0734 0.9806
s 1
f 12/1/1 7/2/2 16/3/3
f 9/4/4 8/5/5 3/6/6
f 16/3/3 8/5/5 14/7/7
f 6/8/8 11/9/9 15/10/10
f 11/9/9 16/3/3 15/10/10
f 5/11/11 10/12/12 1/13/13
f 13/14/14 9/4/4 10/12/12
f 6/8/8 13/14/14 5/11/11
f 15/10/10 14/7/7 13/14/14
f 12/1/1 4/15/15 7/2/2
f 9/4/4 14/7/7 8/5/5
f 16/3/3 7/2/2 8/5/5
f 6/8/8 2/16/16 11/9/9
f 11/9/9 12/1/1 16/3/3
f 5/11/11 13/14/14 10/12/12
f 13/14/14 14/7/7 9/4/4
f 6/8/8 15/10/10 13/14/14
f 15/10/10 16/3/3 14/7/7
