# Blender v2.79 (sub 0) OBJ File: 'mansion.blend'
# www.blender.org
o Plane.018_Plane.020
v -2.002218 2.158139 -0.754885
v -2.013813 2.158139 -0.747354
v -1.997032 2.167476 -0.754885
v -1.997032 2.185974 -0.754885
v -2.002218 2.167476 -0.754885
v -2.160607 2.158139 -0.759093
v -2.160607 2.158139 -0.747354
v -2.160607 2.167476 -0.764278
v -2.006675 2.167476 -0.764278
v -2.160607 2.185974 -0.764278
v -2.006675 2.185974 -0.764278
v -2.160607 2.185974 -0.753167
v -2.160607 2.197088 -0.754636
v -2.006675 2.158139 -0.759093
v -2.006675 2.185974 -0.754885
v -2.006675 2.197088 -0.754885
v -2.160607 2.167476 -0.759093
v -2.006675 2.167476 -0.759093
v -1.997032 2.185974 -0.764278
v -1.997032 2.167476 -0.764278
v -2.002218 2.167476 -0.759093
v -2.002218 2.158139 -0.759093
v -2.002218 2.158139 -0.542946
v -2.013813 2.158139 -0.550477
v -1.997032 2.167476 -0.542946
v -1.997032 2.185974 -0.542946
v -2.002218 2.167476 -0.542946
v -2.134964 2.158139 -0.538738
v -2.134964 2.158139 -0.550477
v -2.134964 2.167476 -0.533552
v -2.006675 2.167476 -0.533553
v -2.134964 2.185974 -0.533552
v -2.006675 2.185974 -0.533553
v -2.134964 2.185974 -0.544664
v -2.134964 2.197088 -0.543195
v -2.006675 2.158139 -0.538738
v -2.006675 2.185974 -0.542946
v -2.006675 2.197088 -0.542946
v -2.134964 2.167476 -0.538738
v -2.006675 2.167476 -0.538738
v -1.997032 2.185974 -0.533553
v -1.997032 2.167476 -0.533553
v -2.002218 2.167476 -0.538738
v -2.002218 2.158139 -0.538738
v -2.152946 1.960183 -0.550428
v -2.152946 1.960183 0.721374
v -2.152946 2.166279 -0.550428
v -2.152946 2.166279 0.721374
v -2.147857 2.159225 -0.548219
v -2.147857 2.168562 -0.548219
v -2.159596 2.159225 -0.548219
v -2.142672 2.168562 -0.548219
v -2.142672 2.168562 0.721746
v -2.142672 2.187060 -0.548219
v -2.142672 2.187060 0.721746
v -2.152314 2.187060 -0.551281
v -2.152314 2.198174 -0.551281
v -2.147858 2.159225 0.721746
v -2.147858 2.168562 0.721746
v -2.159597 2.159225 0.721746
v -2.152314 2.187060 0.721746
v -2.152314 2.198174 0.721746
v -2.148717 2.168562 -0.548219
v -2.148717 2.168562 0.721746
v -2.153783 2.187060 -0.548219
v -2.153783 2.187060 0.721746
v -2.144453 2.029870 0.637302
v -2.144453 2.029870 0.661856
v -2.144453 2.125031 0.637302
v -2.144453 2.125031 0.661856
v -2.154596 2.025680 0.633956
v -2.154596 2.025680 0.665202
v -2.154596 2.129220 0.633956
v -2.154596 2.129220 0.665202
v -2.144453 2.029870 0.581097
v -2.144453 2.029870 0.605650
v -2.144453 2.125031 0.581097
v -2.144453 2.125031 0.605650
v -2.154596 2.025680 0.577751
v -2.154596 2.025680 0.608996
v -2.154596 2.129220 0.577751
v -2.154596 2.129220 0.608996
v -2.144453 2.029870 0.524892
v -2.144453 2.029870 0.549445
v -2.144453 2.125031 0.524892
v -2.144453 2.125031 0.549445
v -2.154596 2.025680 0.521545
v -2.154596 2.025680 0.552791
v -2.154596 2.129221 0.521545
v -2.154596 2.129220 0.552791
v -2.144453 2.029870 0.468686
v -2.144453 2.029870 0.493239
v -2.144453 2.125031 0.468686
v -2.144453 2.125031 0.493239
v -2.154596 2.025680 0.465340
v -2.154596 2.025680 0.496586
v -2.154596 2.129221 0.465340
v -2.154596 2.129221 0.496586
v -2.144453 2.029870 0.412481
v -2.144453 2.029870 0.437034
v -2.144453 2.125031 0.412481
v -2.144453 2.125031 0.437034
v -2.154596 2.025680 0.409135
v -2.154596 2.025680 0.440380
v -2.154596 2.129221 0.409135
v -2.154596 2.129221 0.440380
v -2.148431 2.076583 0.386405
v -2.148431 2.076583 0.315301
v -2.148431 2.024159 0.350853
v -2.148431 2.129008 0.350853
v -2.132081 2.076583 0.350853
v -2.153271 2.076583 0.387822
v -2.153271 2.076583 0.313884
v -2.153271 2.022069 0.350853
v -2.153271 2.131097 0.350853
v -2.144250 2.029870 0.265930
v -2.144250 2.029870 0.290483
v -2.144250 2.125031 0.265930
v -2.144250 2.125031 0.290483
v -2.154392 2.025680 0.262583
v -2.154392 2.025680 0.293829
v -2.154392 2.129221 0.262583
v -2.154392 2.129221 0.293829
v -2.144250 2.029870 0.209724
v -2.144250 2.029870 0.234277
v -2.144250 2.125031 0.209724
v -2.144250 2.125031 0.234277
v -2.154392 2.025680 0.206378
v -2.154392 2.025680 0.237623
v -2.154392 2.129221 0.206378
v -2.154392 2.129221 0.237623
v -2.144250 2.029870 0.153519
v -2.144250 2.029870 0.178072
v -2.144250 2.125031 0.153519
v -2.144250 2.125031 0.178072
v -2.154392 2.025680 0.150172
v -2.154392 2.025680 0.181418
v -2.154392 2.129221 0.150172
v -2.154392 2.129221 0.181418
v -2.144250 2.029870 0.097313
v -2.144250 2.029870 0.121866
v -2.144250 2.125031 0.097313
v -2.144250 2.125031 0.121866
v -2.154392 2.025680 0.093967
v -2.154392 2.025680 0.125213
v -2.154392 2.129221 0.093967
v -2.154392 2.129221 0.125213
v -2.144250 2.029870 0.041108
v -2.144250 2.029870 0.065661
v -2.144250 2.125031 0.041108
v -2.144250 2.125031 0.065661
v -2.154392 2.025680 0.037762
v -2.154392 2.025680 0.069007
v -2.154392 2.129221 0.037762
v -2.154392 2.129221 0.069007
v -2.144250 2.029870 -0.015098
v -2.144250 2.029870 0.009456
v -2.144250 2.125031 -0.015098
v -2.144250 2.125031 0.009456
v -2.154392 2.025680 -0.018444
v -2.154392 2.025680 0.012802
v -2.154392 2.129221 -0.018444
v -2.154392 2.129221 0.012802
v -2.143458 2.029870 -0.161797
v -2.143458 2.029870 -0.137243
v -2.143458 2.125031 -0.161797
v -2.143458 2.125031 -0.137243
v -2.153600 2.025680 -0.165143
v -2.153600 2.025680 -0.133897
v -2.153600 2.129221 -0.165143
v -2.153600 2.129221 -0.133897
v -2.143458 2.029870 -0.218002
v -2.143458 2.029870 -0.193449
v -2.143458 2.125031 -0.218002
v -2.143458 2.125031 -0.193449
v -2.153600 2.025680 -0.221348
v -2.153600 2.025680 -0.190103
v -2.153600 2.129221 -0.221348
v -2.153600 2.129221 -0.190103
v -2.143458 2.029870 -0.274207
v -2.143458 2.029870 -0.249654
v -2.143458 2.125031 -0.274207
v -2.143458 2.125031 -0.249654
v -2.153600 2.025680 -0.277554
v -2.153600 2.025680 -0.246308
v -2.153600 2.129221 -0.277554
v -2.153600 2.129221 -0.246308
v -2.143458 2.029870 -0.330413
v -2.143458 2.029870 -0.305860
v -2.143458 2.125031 -0.330413
v -2.143458 2.125031 -0.305860
v -2.153600 2.025680 -0.333759
v -2.153600 2.025680 -0.302514
v -2.153600 2.129221 -0.333759
v -2.153600 2.129221 -0.302514
v -2.143458 2.029870 -0.386618
v -2.143458 2.029870 -0.362066
v -2.143458 2.125031 -0.386618
v -2.143458 2.125031 -0.362066
v -2.153600 2.025680 -0.389965
v -2.153600 2.025680 -0.358719
v -2.153600 2.129221 -0.389965
v -2.153600 2.129221 -0.358719
v -2.143458 2.029870 -0.442824
v -2.143458 2.029870 -0.418271
v -2.143458 2.125031 -0.442824
v -2.143458 2.125031 -0.418271
v -2.153600 2.025680 -0.446170
v -2.153600 2.025680 -0.414925
v -2.153600 2.129221 -0.446170
v -2.153600 2.129221 -0.414925
v -2.143458 2.029870 -0.499029
v -2.143458 2.029870 -0.474476
v -2.143458 2.125031 -0.499029
v -2.143458 2.125031 -0.474476
v -2.153600 2.025680 -0.502376
v -2.153600 2.025680 -0.471130
v -2.153600 2.129221 -0.502376
v -2.153600 2.129221 -0.471130
v -2.148431 2.076583 -0.039145
v -2.148431 2.076583 -0.110248
v -2.148431 2.024159 -0.074697
v -2.148431 2.129008 -0.074697
v -2.132081 2.076583 -0.074697
v -2.153271 2.076583 -0.037728
v -2.153271 2.076583 -0.111665
v -2.153271 2.022069 -0.074697
v -2.153271 2.131097 -0.074697
vt 0.092267 0.069646
vt 0.205198 0.074621
vt 0.092267 0.074621
vt 0.143198 0.050887
vt 0.030267 0.044966
vt 0.143198 0.044965
vt 0.924359 0.043629
vt 0.993647 0.051955
vt 0.924359 0.051955
vt 0.924423 0.033582
vt 0.993647 0.039401
vt 0.924359 0.038627
vt 0.085045 0.056748
vt 0.085035 0.056740
vt 0.085045 0.056740
vt 0.993647 0.054290
vt 0.348698 0.061382
vt 0.235767 0.064146
vt 0.235767 0.061383
vt 0.344685 0.075299
vt 0.235767 0.069121
vt 0.348698 0.069121
vt 0.235767 0.051526
vt 0.348698 0.046387
vt 0.348698 0.051526
vt 0.997988 0.043629
vt 0.997988 0.039401
vt 0.924359 0.058492
vt 0.924359 0.054290
vt 0.993647 0.043629
vt 0.187799 0.271511
vt 0.194172 0.258960
vt 0.194172 0.271511
vt 0.997988 0.051955
vt 0.995653 0.054290
vt 0.084736 0.056750
vt 0.084748 0.056759
vt 0.084736 0.056759
vt 0.990434 0.063776
vt 0.924359 0.063776
vt 0.085111 0.056731
vt 0.085132 0.056740
vt 0.085111 0.056740
vt 0.084723 0.057217
vt 0.084702 0.057226
vt 0.084702 0.057217
vt 0.474374 0.045905
vt 0.424300 0.053125
vt 0.424300 0.045905
vt 0.424366 0.061837
vt 0.474374 0.056791
vt 0.474435 0.061129
vt 0.085045 0.057187
vt 0.085035 0.057196
vt 0.085019 0.057171
vt 0.424300 0.043881
vt 0.474374 0.043881
vt 0.084461 0.056720
vt 0.084439 0.056740
vt 0.084439 0.056720
vt 0.424300 0.040236
vt 0.424300 0.057462
vt 0.337967 0.258958
vt 0.344339 0.271509
vt 0.337967 0.271509
vt 0.478138 0.045905
vt 0.474374 0.053125
vt 0.084736 0.057206
vt 0.084726 0.057217
vt 0.084726 0.057206
vt 0.084748 0.057198
vt 0.084736 0.057198
vt 0.471588 0.035655
vt 0.474374 0.040236
vt 0.047281 0.061978
vt 0.046581 0.060425
vt 0.047281 0.060425
vt 0.476114 0.040236
vt 0.476114 0.043881
vt 0.008397 0.582740
vt 0.393979 0.520256
vt 0.393979 0.582740
vt 0.008349 0.259446
vt 0.985172 0.273685
vt 0.008349 0.273675
vt 0.987542 0.226122
vt 0.008349 0.234676
vt 0.008349 0.226123
vt 0.008349 0.241874
vt 0.985305 0.250888
vt 0.008349 0.250900
vt 0.985304 0.234675
vt 0.008349 0.234686
vt 0.985172 0.278335
vt 0.008349 0.250900
vt 0.985172 0.259459
vt 0.656469 0.913770
vt 0.731906 0.932127
vt 0.656962 0.931939
vt 0.649454 0.908563
vt 0.732674 0.913985
vt 0.738045 0.937628
vt 0.739553 0.908563
vt 0.650996 0.937628
vt 0.747822 0.688821
vt 0.823227 0.707381
vt 0.748234 0.707039
vt 0.828832 0.683462
vt 0.822815 0.689163
vt 0.830145 0.712740
vt 0.742217 0.712740
vt 0.375198 0.921432
vt 0.450603 0.939993
vt 0.375610 0.939651
vt 0.368279 0.916073
vt 0.450191 0.921775
vt 0.457521 0.945352
vt 0.456207 0.916073
vt 0.369593 0.945352
vt 0.285955 0.892154
vt 0.361360 0.910714
vt 0.286367 0.910372
vt 0.279037 0.886795
vt 0.360949 0.892496
vt 0.280351 0.916073
vt 0.366965 0.886795
vt 0.016484 0.921432
vt 0.091889 0.939993
vt 0.016896 0.939651
vt 0.009565 0.916074
vt 0.091477 0.921775
vt 0.010880 0.945352
vt 0.097494 0.916074
vt 0.864098 0.507541
vt 0.817491 0.523416
vt 0.841131 0.490863
vt 0.815247 0.472066
vt 0.864772 0.458309
vt 0.818165 0.474185
vt 0.867015 0.509660
vt 0.106580 0.921432
vt 0.181985 0.939993
vt 0.106992 0.939650
vt 0.099662 0.916073
vt 0.181574 0.921774
vt 0.188904 0.945352
vt 0.187590 0.916073
vt 0.100976 0.945352
vt 0.476884 0.943131
vt 0.552321 0.961487
vt 0.476116 0.961273
vt 0.470744 0.937630
vt 0.551827 0.943319
vt 0.559335 0.966694
vt 0.469236 0.966694
vt 0.016484 0.892154
vt 0.091889 0.910715
vt 0.016896 0.910372
vt 0.009566 0.886795
vt 0.091477 0.892496
vt 0.098808 0.916074
vt 0.010880 0.916074
vt 0.656469 0.884703
vt 0.731906 0.903060
vt 0.656962 0.902872
vt 0.649454 0.879496
vt 0.732674 0.884918
vt 0.738046 0.908561
vt 0.739553 0.879496
vt 0.650996 0.908561
vt 0.750670 0.975293
vt 0.821182 0.992649
vt 0.751055 0.992329
vt 0.744200 0.970282
vt 0.820797 0.975613
vt 0.827652 0.997660
vt 0.826423 0.970282
vt 0.745429 0.997660
vt 0.566951 0.943127
vt 0.642511 0.961295
vt 0.566215 0.961267
vt 0.647892 0.937631
vt 0.641773 0.943154
vt 0.649419 0.966693
vt 0.559335 0.966693
vt 0.375198 0.892154
vt 0.450603 0.910714
vt 0.375609 0.910372
vt 0.456207 0.886795
vt 0.450191 0.892496
vt 0.457521 0.916073
vt 0.369593 0.916073
vt 0.657101 0.943129
vt 0.732538 0.961486
vt 0.656334 0.961271
vt 0.738012 0.937628
vt 0.732045 0.943317
vt 0.739553 0.966693
vt 0.649454 0.966693
vt 0.750671 0.947912
vt 0.821183 0.965268
vt 0.751056 0.964948
vt 0.744201 0.942901
vt 0.820798 0.948233
vt 0.827653 0.970280
vt 0.745430 0.970280
vt 0.476232 0.913765
vt 0.551824 0.931961
vt 0.476757 0.931936
vt 0.469216 0.908563
vt 0.552347 0.913793
vt 0.557812 0.937628
vt 0.470791 0.937630
vt 0.375204 0.775033
vt 0.450609 0.793594
vt 0.375616 0.793251
vt 0.368285 0.769674
vt 0.450197 0.775375
vt 0.457527 0.798953
vt 0.456214 0.769674
vt 0.566351 0.884698
vt 0.641943 0.902895
vt 0.566876 0.902870
vt 0.559335 0.879496
vt 0.642466 0.884726
vt 0.647931 0.908562
vt 0.649454 0.879496
vt 0.560910 0.908563
vt 0.375204 0.745754
vt 0.450609 0.764315
vt 0.375616 0.763973
vt 0.368285 0.740395
vt 0.450197 0.746097
vt 0.457528 0.769674
vt 0.456214 0.740395
vt 0.369599 0.769674
vt 0.942995 0.473231
vt 0.988946 0.455546
vt 0.966596 0.488998
vt 0.993195 0.506769
vt 0.944246 0.522451
vt 0.990197 0.504766
vt 0.939997 0.471228
vt 0.205198 0.069645
vt 0.030267 0.050888
vt 0.993706 0.034399
vt 0.085019 0.056764
vt 0.348698 0.064146
vt 0.239780 0.075299
vt 0.235767 0.046388
vt 0.993647 0.058492
vt 0.187799 0.258960
vt 0.084748 0.056740
vt 0.085132 0.056731
vt 0.084723 0.057226
vt 0.085045 0.057196
vt 0.084461 0.056740
vt 0.344340 0.258959
vt 0.478138 0.053125
vt 0.084748 0.057217
vt 0.424300 0.035654
vt 0.046581 0.061978
vt 0.008397 0.520257
vt 0.987542 0.234670
vt 0.985305 0.241857
vt 0.008349 0.278336
vt 0.985172 0.250906
vt 0.740903 0.683462
vt 0.368279 0.916073
vt 0.098808 0.945352
vt 0.867015 0.455220
vt 0.815247 0.526506
vt 0.557794 0.937630
vt 0.097494 0.886795
vt 0.560811 0.937630
vt 0.368279 0.886795
vt 0.650962 0.937628
vt 0.826424 0.942901
vt 0.559335 0.908563
vt 0.369599 0.798952
vt 0.942125 0.525626
vt 0.991067 0.452371
vn 1.0000 0.0000 0.0000
vn 0.0000 0.0000 -1.0000
vn -0.0111 -0.1310 -0.9913
vn 0.0000 -1.0000 0.0000
vn 0.0000 1.0000 0.0000
vn 0.0000 0.0000 1.0000
vn -0.0019 0.0000 1.0000
vn 0.3133 0.0000 -0.9497
vn 0.3133 0.0000 0.9497
vn 0.3818 0.9242 0.0000
vn 0.3818 -0.9242 0.0000
vn 0.3133 0.0000 0.9496
vn 0.3133 0.0000 -0.9496
vn 0.8741 -0.2726 0.4020
vn 0.2355 0.5455 -0.8044
vn 0.8741 -0.2726 -0.4020
vn 0.8741 0.2726 -0.4020
vn 0.8741 0.2726 0.4020
vn 0.2355 -0.5455 -0.8044
vn 0.2355 0.5455 0.8044
vn 0.2355 -0.5455 0.8044
vn 0.3134 0.0000 0.9496
vn 0.2356 0.5455 -0.8043
vn 0.2356 -0.5455 -0.8043
vn -0.0016 0.0000 -1.0000
vn -0.0133 -0.1310 0.9913
vn 0.2356 -0.5455 -0.8044
s off
f 23/1/1 5/2/1 27/3/1
f 37/4/1 16/5/1 38/6/1
f 10/7/2 9/8/2 8/9/2
f 13/10/3 15/11/3 12/12/3
f 1/13/4 14/14/4 22/15/4
f 18/16/4 8/9/4 9/8/4
f 25/17/4 5/18/4 3/19/4
f 24/20/4 1/21/4 23/22/4
f 4/23/5 37/24/5 26/25/5
f 19/26/5 15/11/5 4/27/5
f 18/16/2 6/28/2 17/29/2
f 10/7/5 15/11/5 11/30/5
f 20/31/1 4/32/1 3/33/1
f 11/30/2 20/34/2 9/8/2
f 9/8/4 21/35/4 18/16/4
f 21/36/4 3/37/4 5/38/4
f 6/28/4 2/39/4 7/40/4
f 5/41/1 22/42/1 21/43/1
f 22/44/2 18/45/2 21/46/2
f 31/47/6 32/48/6 30/49/6
f 35/50/7 37/51/7 38/52/7
f 23/53/4 36/54/4 24/55/4
f 31/47/4 39/56/4 40/57/4
f 37/58/5 41/59/5 26/60/5
f 28/61/6 40/57/6 39/56/6
f 32/48/5 37/51/5 34/62/5
f 26/63/1 42/64/1 25/65/1
f 42/66/6 33/67/6 31/47/6
f 43/68/4 31/69/4 40/70/4
f 25/71/4 43/68/4 27/72/4
f 28/61/4 24/73/4 36/74/4
f 44/75/1 27/76/1 43/77/1
f 40/57/6 44/78/6 43/79/6
f 3/33/1 26/63/1 25/65/1
f 45/80/1 48/81/1 46/82/1
f 54/83/1 53/84/1 52/85/1
f 62/86/1 56/87/1 57/88/1
f 49/89/4 60/90/4 51/91/4
f 59/92/1 49/89/1 50/93/1
f 64/94/4 52/85/4 53/84/4
f 65/95/5 55/96/5 54/83/5
f 67/97/1 70/98/1 68/99/1
f 71/100/8 69/101/8 67/97/8
f 74/102/9 68/99/9 70/98/9
f 73/103/10 70/98/10 69/101/10
f 72/104/11 67/97/11 68/99/11
f 75/105/1 78/106/1 76/107/1
f 75/105/8 81/108/8 77/109/8
f 82/110/12 76/107/12 78/106/12
f 81/108/10 78/106/10 77/109/10
f 80/111/11 75/105/11 76/107/11
f 83/112/1 86/113/1 84/114/1
f 87/115/13 85/116/13 83/112/13
f 90/117/12 84/114/12 86/113/12
f 89/118/10 86/113/10 85/116/10
f 88/119/11 83/112/11 84/114/11
f 91/120/1 94/121/1 92/122/1
f 95/123/8 93/124/8 91/120/8
f 94/121/12 96/125/12 92/122/12
f 97/126/10 94/121/10 93/124/10
f 92/122/11 95/123/11 91/120/11
f 99/127/1 102/128/1 100/129/1
f 103/130/8 101/131/8 99/127/8
f 102/128/12 104/132/12 100/129/12
f 105/133/10 102/128/10 101/131/10
f 100/129/11 103/130/11 99/127/11
f 107/134/14 109/135/14 111/136/14
f 113/137/15 110/138/15 108/139/15
f 108/139/16 111/136/16 109/135/16
f 108/139/17 110/138/17 111/136/17
f 110/138/18 107/134/18 111/136/18
f 109/135/19 113/137/19 108/139/19
f 110/138/20 112/140/20 107/134/20
f 112/140/21 109/135/21 107/134/21
f 116/141/1 119/142/1 117/143/1
f 120/144/13 118/145/13 116/141/13
f 123/146/12 117/143/12 119/142/12
f 122/147/10 119/142/10 118/145/10
f 121/148/11 116/141/11 117/143/11
f 124/149/1 127/150/1 125/151/1
f 128/152/13 126/153/13 124/149/13
f 131/154/9 125/151/9 127/150/9
f 126/153/10 131/154/10 127/150/10
f 129/155/11 124/149/11 125/151/11
f 132/156/1 135/157/1 133/158/1
f 136/159/13 134/160/13 132/156/13
f 139/161/9 133/158/9 135/157/9
f 134/160/10 139/161/10 135/157/10
f 137/162/11 132/156/11 133/158/11
f 140/163/1 143/164/1 141/165/1
f 144/166/13 142/167/13 140/163/13
f 147/168/12 141/165/12 143/164/12
f 146/169/10 143/164/10 142/167/10
f 145/170/11 140/163/11 141/165/11
f 148/171/1 151/172/1 149/173/1
f 152/174/13 150/175/13 148/171/13
f 155/176/12 149/173/12 151/172/12
f 154/177/10 151/172/10 150/175/10
f 153/178/11 148/171/11 149/173/11
f 156/179/1 159/180/1 157/181/1
f 156/179/13 162/182/13 158/183/13
f 163/184/9 157/181/9 159/180/9
f 158/183/10 163/184/10 159/180/10
f 161/185/11 156/179/11 157/181/11
f 164/186/1 167/187/1 165/188/1
f 164/186/13 170/189/13 166/190/13
f 171/191/9 165/188/9 167/187/9
f 166/190/10 171/191/10 167/187/10
f 169/192/11 164/186/11 165/188/11
f 172/193/1 175/194/1 173/195/1
f 172/193/13 178/196/13 174/197/13
f 179/198/12 173/195/12 175/194/12
f 178/196/10 175/194/10 174/197/10
f 177/199/11 172/193/11 173/195/11
f 180/200/1 183/201/1 181/202/1
f 184/203/13 182/204/13 180/200/13
f 187/205/9 181/202/9 183/201/9
f 182/204/10 187/205/10 183/201/10
f 185/206/11 180/200/11 181/202/11
f 188/207/1 191/208/1 189/209/1
f 192/210/13 190/211/13 188/207/13
f 195/212/9 189/209/9 191/208/9
f 190/211/10 195/212/10 191/208/10
f 193/213/11 188/207/11 189/209/11
f 196/214/1 199/215/1 197/216/1
f 200/217/13 198/218/13 196/214/13
f 203/219/22 197/216/22 199/215/22
f 202/220/10 199/215/10 198/218/10
f 197/216/11 200/217/11 196/214/11
f 204/221/1 207/222/1 205/223/1
f 208/224/13 206/225/13 204/221/13
f 211/226/12 205/223/12 207/222/12
f 210/227/10 207/222/10 206/225/10
f 209/228/11 204/221/11 205/223/11
f 212/229/1 215/230/1 213/231/1
f 216/232/13 214/233/13 212/229/13
f 219/234/12 213/231/12 215/230/12
f 218/235/10 215/230/10 214/233/10
f 217/236/11 212/229/11 213/231/11
f 220/237/14 222/238/14 224/239/14
f 226/240/23 223/241/23 221/242/23
f 221/242/16 224/239/16 222/238/16
f 221/242/17 223/241/17 224/239/17
f 223/241/18 220/237/18 224/239/18
f 222/238/24 226/240/24 221/242/24
f 223/241/20 225/243/20 220/237/20
f 225/243/21 222/238/21 220/237/21
f 23/1/1 1/244/1 5/2/1
f 37/4/1 15/245/1 16/5/1
f 10/7/2 11/30/2 9/8/2
f 13/10/25 16/246/25 15/11/25
f 1/13/4 2/247/4 14/14/4
f 18/16/4 17/29/4 8/9/4
f 25/17/4 27/248/4 5/18/4
f 24/20/4 2/249/4 1/21/4
f 4/23/5 15/250/5 37/24/5
f 19/26/5 11/30/5 15/11/5
f 18/16/2 14/251/2 6/28/2
f 10/7/5 12/12/5 15/11/5
f 20/31/1 19/252/1 4/32/1
f 11/30/2 19/26/2 20/34/2
f 9/8/4 20/34/4 21/35/4
f 21/36/4 20/253/4 3/37/4
f 6/28/4 14/251/4 2/39/4
f 5/41/1 1/254/1 22/42/1
f 22/44/2 14/255/2 18/45/2
f 31/47/6 33/67/6 32/48/6
f 35/50/26 34/62/26 37/51/26
f 23/53/4 44/256/4 36/54/4
f 31/47/4 30/49/4 39/56/4
f 37/58/5 33/257/5 41/59/5
f 28/61/6 36/74/6 40/57/6
f 32/48/5 33/67/5 37/51/5
f 26/63/1 41/258/1 42/64/1
f 42/66/6 41/259/6 33/67/6
f 43/68/4 42/260/4 31/69/4
f 25/71/4 42/260/4 43/68/4
f 28/61/4 29/261/4 24/73/4
f 44/75/1 23/262/1 27/76/1
f 40/57/6 36/74/6 44/78/6
f 3/33/1 4/32/1 26/63/1
f 45/80/1 47/263/1 48/81/1
f 54/83/1 55/96/1 53/84/1
f 62/86/1 61/264/1 56/87/1
f 49/89/4 58/265/4 60/90/4
f 59/92/1 58/265/1 49/89/1
f 64/94/4 63/266/4 52/85/4
f 65/95/5 66/267/5 55/96/5
f 67/97/1 69/101/1 70/98/1
f 71/100/8 73/103/8 69/101/8
f 74/102/9 72/104/9 68/99/9
f 73/103/10 74/102/10 70/98/10
f 72/104/11 71/100/11 67/97/11
f 75/105/1 77/109/1 78/106/1
f 75/105/13 79/268/13 81/108/13
f 82/110/12 80/111/12 76/107/12
f 81/108/10 82/110/10 78/106/10
f 80/111/11 79/268/11 75/105/11
f 83/112/1 85/116/1 86/113/1
f 87/115/13 89/118/13 85/116/13
f 90/117/12 88/119/12 84/114/12
f 89/118/10 90/117/10 86/113/10
f 88/119/11 87/115/11 83/112/11
f 91/120/1 93/124/1 94/121/1
f 95/123/8 97/126/8 93/124/8
f 94/121/12 98/269/12 96/125/12
f 97/126/10 98/269/10 94/121/10
f 92/122/11 96/125/11 95/123/11
f 99/127/1 101/131/1 102/128/1
f 103/130/8 105/133/8 101/131/8
f 102/128/12 106/270/12 104/132/12
f 105/133/10 106/270/10 102/128/10
f 100/129/11 104/132/11 103/130/11
f 113/137/15 115/271/15 110/138/15
f 109/135/27 114/272/27 113/137/27
f 110/138/20 115/271/20 112/140/20
f 112/140/21 114/272/21 109/135/21
f 116/141/1 118/145/1 119/142/1
f 120/144/13 122/147/13 118/145/13
f 123/146/12 121/148/12 117/143/12
f 122/147/10 123/146/10 119/142/10
f 121/148/11 120/144/11 116/141/11
f 124/149/1 126/153/1 127/150/1
f 128/152/13 130/273/13 126/153/13
f 131/154/9 129/155/9 125/151/9
f 126/153/10 130/273/10 131/154/10
f 129/155/11 128/152/11 124/149/11
f 132/156/1 134/160/1 135/157/1
f 136/159/13 138/274/13 134/160/13
f 139/161/9 137/162/9 133/158/9
f 134/160/10 138/274/10 139/161/10
f 137/162/11 136/159/11 132/156/11
f 140/163/1 142/167/1 143/164/1
f 144/166/13 146/169/13 142/167/13
f 147/168/12 145/170/12 141/165/12
f 146/169/10 147/168/10 143/164/10
f 145/170/11 144/166/11 140/163/11
f 148/171/1 150/175/1 151/172/1
f 152/174/13 154/177/13 150/175/13
f 155/176/12 153/178/12 149/173/12
f 154/177/10 155/176/10 151/172/10
f 153/178/11 152/174/11 148/171/11
f 156/179/1 158/183/1 159/180/1
f 156/179/13 160/275/13 162/182/13
f 163/184/9 161/185/9 157/181/9
f 158/183/10 162/182/10 163/184/10
f 161/185/11 160/275/11 156/179/11
f 164/186/1 166/190/1 167/187/1
f 164/186/13 168/276/13 170/189/13
f 171/191/9 169/192/9 165/188/9
f 166/190/10 170/189/10 171/191/10
f 169/192/11 168/276/11 164/186/11
f 172/193/1 174/197/1 175/194/1
f 172/193/13 176/277/13 178/196/13
f 179/198/12 177/199/12 173/195/12
f 178/196/10 179/198/10 175/194/10
f 177/199/11 176/277/11 172/193/11
f 180/200/1 182/204/1 183/201/1
f 184/203/13 186/278/13 182/204/13
f 187/205/9 185/206/9 181/202/9
f 182/204/10 186/278/10 187/205/10
f 185/206/11 184/203/11 180/200/11
f 188/207/1 190/211/1 191/208/1
f 192/210/13 194/279/13 190/211/13
f 195/212/9 193/213/9 189/209/9
f 190/211/10 194/279/10 195/212/10
f 193/213/11 192/210/11 188/207/11
f 196/214/1 198/218/1 199/215/1
f 200/217/13 202/220/13 198/218/13
f 203/219/12 201/280/12 197/216/12
f 202/220/10 203/219/10 199/215/10
f 197/216/11 201/280/11 200/217/11
f 204/221/1 206/225/1 207/222/1
f 208/224/13 210/227/13 206/225/13
f 211/226/9 209/228/9 205/223/9
f 210/227/10 211/226/10 207/222/10
f 209/228/11 208/224/11 204/221/11
f 212/229/1 214/233/1 215/230/1
f 216/232/8 218/235/8 214/233/8
f 219/234/12 217/236/12 213/231/12
f 218/235/10 219/234/10 215/230/10
f 217/236/11 216/232/11 212/229/11
f 226/240/15 228/281/15 223/241/15
f 222/238/27 227/282/27 226/240/27
f 223/241/20 228/281/20 225/243/20
f 225/243/21 227/282/21 222/238/21
