# Blender v2.79 (sub 0) OBJ File: 'mansion.blend'
# www.blender.org
o Plane.004
v 1.322249 2.231247 -4.004817
v 1.322249 2.371033 -4.004817
v -0.461785 2.231247 -4.004817
v -0.461785 2.371033 -4.004817
v 0.005455 2.231247 -4.004817
v 0.005455 2.371033 -4.004817
v 0.870209 2.231247 -4.004817
v 0.870209 2.371033 -4.004817
v 0.005455 2.425485 -4.004817
v 0.870209 2.425485 -4.004817
v 1.322249 2.420102 -4.057547
v -0.461785 2.420102 -4.057547
v 0.005455 2.420102 -4.057547
v 0.870209 2.420102 -4.057547
v 0.005455 2.465817 -4.041128
v 0.870209 2.465817 -4.041128
v 0.005455 2.371033 -4.057745
v 0.870209 2.371033 -4.057745
v 0.005455 2.425485 -4.057745
v 0.870209 2.425485 -4.057745
v 0.005455 2.465817 -4.057745
v 0.870209 2.465817 -4.057745
v -2.130979 1.948487 -2.959738
v -2.130979 2.293800 -2.959738
v -2.130979 1.948488 -0.748072
v -2.130979 2.293800 -0.748072
v -2.130979 1.948488 -1.238130
v -2.130979 2.293800 -1.238130
v -2.130979 1.948487 -2.370961
v -2.130979 2.293800 -2.370961
v -2.130979 2.348252 -1.238130
v -2.130979 2.348252 -2.370961
v -2.183709 2.342870 -2.959738
v -2.183709 2.342870 -0.748073
v -2.183709 2.342870 -1.238130
v -2.183709 2.342870 -2.370961
v -2.167290 2.388585 -1.238130
v -2.167290 2.388585 -2.370961
v -2.183908 2.293800 -1.238130
v -2.183908 2.293800 -2.370961
v -2.183908 2.348252 -1.238130
v -2.183908 2.348252 -2.370961
v -2.183908 2.388585 -1.238130
v -2.183908 2.388585 -2.370961
v -2.373184 1.948487 -2.959738
v -2.373184 1.948488 -0.748072
v -2.373184 1.948488 -1.238130
v -2.373184 1.948487 -2.370961
v -2.130979 2.188771 -2.959738
v -2.130979 2.188771 -0.748072
v -2.130979 2.188771 -1.238130
v -2.130979 2.188771 -2.370961
v -2.130979 1.983959 -2.959738
v -2.130979 1.983959 -0.748072
v -2.130979 1.983959 -1.238130
v -2.130979 1.983959 -2.370961
v -0.826164 2.285146 -4.354210
v -2.152946 2.285146 -4.354210
v -2.152946 2.285146 -3.082408
v -0.826164 2.285146 -4.004816
v -0.722179 2.285146 -4.004816
v -0.826164 2.338429 -4.376416
v -2.152946 2.338429 -4.376416
v -2.183233 2.338429 -4.354210
v -2.183233 2.338429 -3.082408
v -0.806607 2.338429 -4.354210
v -0.806607 2.338429 -4.037750
v -0.790490 2.338429 -4.019673
v -0.710451 2.338429 -4.019673
v -2.152946 2.221989 -4.354210
v -0.826164 2.221989 -4.354210
v -2.152946 2.221989 -3.082408
v -0.826164 2.221989 -4.004816
v -0.722179 2.221989 -4.004816
v 1.731027 2.247471 -4.354210
v 4.175059 2.247471 -4.354210
v 1.731027 2.318648 -4.354210
v 4.175059 2.318648 -4.354210
v 1.731027 2.247471 -4.004817
v 1.731027 2.318648 -4.004817
v 1.575948 2.247471 -4.004817
v 1.575948 2.318648 -4.004817
v 1.731027 2.370891 -4.397163
v 4.175059 2.370891 -4.397163
v 1.692441 2.370891 -4.354210
v 1.692441 2.370891 -4.041510
v 1.575948 2.370891 -4.041168
vt 0.282129 0.191176
vt 0.398342 0.000000
vt 0.398343 0.191176
vt 0.282129 0.544999
vt 0.398343 0.544999
vt 0.282129 0.729955
vt 0.398343 0.729955
vt 0.236859 0.191176
vt 0.238924 0.544999
vt 0.238924 0.000000
vt 0.282128 0.000000
vt 0.236859 0.544999
vt 0.201668 0.191176
vt 0.969766 0.375936
vt 0.955930 0.388495
vt 0.955930 0.375936
vt 0.977958 0.423840
vt 0.991794 0.440280
vt 0.947724 0.440280
vt 1.000000 0.405451
vt 1.000000 0.388495
vt 0.991794 0.462475
vt 0.947724 0.462475
vt 0.464897 0.704413
vt 0.398343 0.904925
vt 0.398343 0.704413
vt 0.464897 0.240904
vt 0.398343 0.240904
vt 0.398343 0.000000
vt 0.499401 0.704413
vt 0.464897 0.000000
vt 0.524472 0.240904
vt 0.524471 0.904925
vt 0.464897 0.904925
vt 0.499401 0.240904
vt 0.544572 0.704413
vt 0.873420 0.423840
vt 0.859584 0.440343
vt 0.859584 0.423840
vt 0.917490 0.462564
vt 0.903654 0.446086
vt 0.947724 0.446086
vt 0.903654 0.462623
vt 0.903654 0.440343
vt 0.903654 0.423840
vt 0.947724 0.423840
vt 0.000001 0.200512
vt 0.201668 0.664021
vt 0.000001 0.664021
vt 0.000000 0.000000
vt 0.201668 0.200512
vt 0.201668 0.904925
vt 0.000001 0.904925
vt 0.859584 0.704413
vt 0.837107 0.904925
vt 0.837106 0.704413
vt 0.859584 0.240904
vt 0.837106 0.240904
vt 0.859584 0.000000
vt 0.837107 0.000000
vt 0.746963 0.555258
vt 0.694456 0.012392
vt 0.746963 0.012392
vt 0.746963 0.000000
vt 0.786984 0.520370
vt 0.746963 0.520370
vt 0.694456 0.555258
vt 0.649143 0.012392
vt 0.786984 0.000000
vt 0.837106 0.520370
vt 0.650158 0.000000
vt 0.913191 0.303489
vt 0.957700 0.173914
vt 0.958806 0.303395
vt 0.957465 0.312484
vt 0.946165 0.401738
vt 0.889287 0.423840
vt 0.859584 0.401738
vt 0.911970 0.160532
vt 0.958806 0.166515
vt 0.860806 0.303597
vt 0.859584 0.375936
vt 0.544572 0.000000
vt 0.603746 1.000000
vt 0.544572 1.000000
vt 0.904687 0.017575
vt 0.859584 0.160532
vt 0.859584 0.017575
vt 0.918759 0.312484
vt 0.859584 0.375936
vt 0.859584 0.312484
vt 0.603746 0.000000
vt 0.649143 1.000000
vt 0.937792 0.000000
vt 0.958633 0.017575
vt 0.918759 0.375936
vt 0.963869 0.328272
vt 0.963854 0.375936
vt 0.958633 0.145519
vt 0.904687 0.160532
vt 0.238924 0.729955
vt 0.238924 0.191176
vt 0.201668 0.544999
vt 0.991794 0.423840
vt 0.955930 0.405451
vt 0.524472 0.000000
vt 0.524471 0.704413
vt 0.544572 0.240904
vt 0.903654 0.462564
vt 0.859584 0.462623
vt 0.201667 0.000000
vt 0.859584 0.904925
vt 0.649143 0.555258
vt 0.837106 0.000000
vt 0.955930 0.423840
vt 0.859584 0.160640
vt 0.946165 0.375936
vt 0.649143 0.000000
vn 0.0000 0.0000 1.0000
vn 0.0000 0.7321 0.6812
vn 0.0000 0.6691 0.7432
vn 1.0000 0.0000 0.0000
vn -1.0000 0.0000 0.0000
vn 0.6812 0.7321 0.0000
vn 0.7432 0.6691 0.0000
vn 0.0000 0.0000 -1.0000
vn 0.0000 -1.0000 0.0000
vn 0.0000 0.3847 0.9230
vn 0.8694 0.4942 0.0000
vn 0.5605 0.3186 0.7644
vn -0.9388 0.3446 0.0000
vn -0.7235 0.2656 0.6372
vn 0.0000 0.2686 0.9633
vn -0.6157 0.5653 0.5489
vn 0.0000 0.6351 0.7724
vn 0.6520 0.4815 0.5857
vn 0.0024 0.5711 0.8208
vn 0.8044 0.5941 0.0000
vn 0.0000 0.5748 0.8183
s off
f 6/1/1 3/2/1 5/3/1
f 8/4/1 5/3/1 7/5/1
f 2/6/1 7/5/1 1/7/1
f 8/4/1 9/8/1 6/1/1
f 2/6/2 14/9/2 8/4/2
f 6/1/2 12/10/2 4/11/2
f 10/12/3 15/13/3 9/8/3
f 16/14/4 20/15/4 22/16/4
f 15/17/5 19/18/5 9/19/5
f 8/20/4 20/15/4 10/21/4
f 9/19/5 17/22/5 6/23/5
f 28/24/4 50/25/4 51/26/4
f 30/27/4 51/26/4 52/28/4
f 49/29/4 30/27/4 52/28/4
f 30/27/4 31/30/4 28/24/4
f 24/31/6 36/32/6 30/27/6
f 28/24/6 34/33/6 26/34/6
f 32/35/7 37/36/7 31/30/7
f 38/37/8 42/38/8 44/39/8
f 37/40/1 41/41/1 31/42/1
f 30/43/8 42/38/8 32/44/8
f 31/42/1 39/45/1 28/46/1
f 27/47/9 48/48/9 29/49/9
f 25/50/9 47/51/9 27/47/9
f 29/49/9 45/52/9 23/53/9
f 55/54/4 25/55/4 27/56/4
f 56/57/4 27/56/4 29/58/4
f 53/59/4 29/58/4 23/60/4
f 71/61/1 58/62/1 70/63/1
f 70/64/4 59/65/4 72/66/4
f 57/67/10 63/68/10 58/62/10
f 58/69/11 65/70/11 59/65/11
f 58/62/12 63/68/12 64/71/12
f 57/72/13 67/73/13 66/74/13
f 57/72/14 66/74/14 62/75/14
f 61/76/15 68/77/15 60/78/15
f 60/79/16 68/80/16 67/73/16
f 71/81/5 60/79/5 57/72/5
f 73/82/1 61/76/1 60/78/1
f 76/83/1 77/84/1 75/85/1
f 77/86/4 79/87/4 75/88/4
f 80/89/1 81/90/1 79/91/1
f 78/92/17 83/93/17 77/84/17
f 77/86/18 83/94/18 85/95/18
f 82/96/19 86/97/19 87/98/19
f 77/86/20 86/99/20 80/100/20
f 6/1/1 4/11/1 3/2/1
f 8/4/1 6/1/1 5/3/1
f 2/6/1 8/4/1 7/5/1
f 8/4/1 10/12/1 9/8/1
f 2/6/2 11/101/2 14/9/2
f 6/1/2 13/102/2 12/10/2
f 10/12/3 16/103/3 15/13/3
f 16/14/4 10/21/4 20/15/4
f 15/17/5 21/104/5 19/18/5
f 8/20/4 18/105/4 20/15/4
f 9/19/5 19/18/5 17/22/5
f 28/24/4 26/34/4 50/25/4
f 30/27/4 28/24/4 51/26/4
f 49/29/4 24/31/4 30/27/4
f 30/27/4 32/35/4 31/30/4
f 24/31/6 33/106/6 36/32/6
f 28/24/6 35/107/6 34/33/6
f 32/35/7 38/108/7 37/36/7
f 38/37/8 32/44/8 42/38/8
f 37/40/1 43/109/1 41/41/1
f 30/43/8 40/110/8 42/38/8
f 31/42/1 41/41/1 39/45/1
f 27/47/9 47/51/9 48/48/9
f 25/50/9 46/111/9 47/51/9
f 29/49/9 48/48/9 45/52/9
f 55/54/4 54/112/4 25/55/4
f 56/57/4 55/54/4 27/56/4
f 53/59/4 56/57/4 29/58/4
f 71/61/1 57/67/1 58/62/1
f 70/64/4 58/69/4 59/65/4
f 57/67/10 62/113/10 63/68/10
f 58/69/11 64/114/11 65/70/11
f 57/72/13 60/79/13 67/73/13
f 61/76/15 69/115/15 68/77/15
f 71/81/5 73/116/5 60/79/5
f 73/82/1 74/117/1 61/76/1
f 76/83/1 78/92/1 77/84/1
f 77/86/4 80/100/4 79/87/4
f 80/89/1 82/96/1 81/90/1
f 78/92/17 84/118/17 83/93/17
f 82/96/21 80/89/21 86/97/21
f 77/86/20 85/95/20 86/99/20
