# Blender v2.79 (sub 0) OBJ File: 'mansion.blend'
# www.blender.org
o Plane.020_Plane.022
v -2.152946 2.285146 -0.641165
v -2.152946 2.285146 0.630637
v -2.183233 2.338429 -0.641165
v -2.183233 2.338429 0.630637
v -2.152946 2.221989 -0.641165
v -2.152946 2.221989 0.630637
v -2.152946 2.285146 -0.500222
v -2.183233 2.338429 -0.500222
v -2.152946 2.221989 -0.500222
vt 0.498899 0.243032
vt 0.458878 0.705610
vt 0.458878 0.243032
vt 0.061889 0.002441
vt 0.112012 0.234550
vt 0.061889 0.234550
vt 0.021868 0.234550
vt 0.021869 0.002441
vt 0.549022 0.705610
vt 0.498899 0.705610
vt 0.112012 0.002441
vt 0.549022 0.243032
vn 1.0000 0.0000 0.0000
vn 0.8694 0.4942 0.0000
s off
f 7/1/1 6/2/1 9/3/1
f 1/4/2 8/5/2 7/6/2
f 1/4/1 9/7/1 5/8/1
f 7/1/2 4/9/2 2/10/2
f 7/1/1 2/10/1 6/2/1
f 1/4/2 3/11/2 8/5/2
f 1/4/1 7/6/1 9/7/1
f 7/1/2 8/12/2 4/9/2
