# Blender v2.79 (sub 0) OBJ File: 'mansion.blend'
# www.blender.org
o Template
v 4.852790 1.418054 -4.354210
v 4.551838 1.418054 -4.354210
v 4.852790 1.862899 -4.354210
v 4.551838 1.862899 -4.354210
v 4.835246 1.437272 -4.365282
v 4.569383 1.437272 -4.365282
v 4.835246 1.843682 -4.365282
v 4.569383 1.843682 -4.365282
v 4.826209 1.446949 -4.365282
v 4.578420 1.446949 -4.365282
v 4.826209 1.834004 -4.365282
v 4.578420 1.834004 -4.365282
v 4.832991 1.439344 -4.365282
v 4.832991 1.841609 -4.365282
v 4.571638 1.841609 -4.365282
v 4.571638 1.439344 -4.365282
v 4.826209 1.446949 -4.362140
v 4.578420 1.446949 -4.362140
v 4.826209 1.834004 -4.362140
v 4.578420 1.834004 -4.362140
v 4.832991 1.439344 -4.362140
v 4.832991 1.841609 -4.362140
v 4.571638 1.841609 -4.362140
v 4.571638 1.439344 -4.362140
v 4.829600 1.837807 -4.359658
v 4.575029 1.443146 -4.359658
v 4.829600 1.443146 -4.359658
v 4.575029 1.837807 -4.359658
vn -0.5337 0.0000 0.8457
vn 0.5337 0.0000 0.8457
vn 0.0000 -0.4992 0.8665
vn 0.0000 0.4992 0.8665
vn 1.0000 0.0000 0.0000
vn -1.0000 0.0000 0.0000
vn 0.0000 1.0000 0.0000
vn 0.0000 -1.0000 0.0000
vn 0.0001 0.0000 1.0000
vn -0.0001 0.0000 1.0000
vn 0.0000 0.0000 1.0000
vn 0.5905 0.0000 0.8070
vn 0.0000 -0.5465 0.8374
vn 0.0000 0.5465 0.8374
vn -0.5905 0.0000 0.8070
vn 0.0000 -0.5465 0.8375
s off
f 3//1 5//1 1//1
f 2//2 8//2 4//2
f 8//3 3//3 4//3
f 1//4 6//4 2//4
f 14//5 21//5 13//5
f 16//6 23//6 15//6
f 15//7 22//7 14//7
f 13//8 24//8 16//8
f 7//9 13//9 5//9
f 6//10 15//10 8//10
f 8//11 14//11 7//11
f 5//11 16//11 6//11
f 26//12 20//12 28//12
f 28//13 19//13 25//13
f 27//14 18//14 26//14
f 9//6 19//6 11//6
f 12//5 18//5 10//5
f 11//8 20//8 12//8
f 10//7 17//7 9//7
f 9//11 12//11 10//11
f 25//15 17//15 27//15
f 24//15 28//15 23//15
f 23//14 25//14 22//14
f 21//16 26//16 24//16
f 21//12 25//12 27//12
f 3//1 7//1 5//1
f 2//2 6//2 8//2
f 8//3 7//3 3//3
f 1//4 5//4 6//4
f 14//5 22//5 21//5
f 16//6 24//6 23//6
f 15//7 23//7 22//7
f 13//8 21//8 24//8
f 7//11 14//11 13//11
f 6//11 16//11 15//11
f 8//11 15//11 14//11
f 5//11 13//11 16//11
f 26//12 18//12 20//12
f 28//13 20//13 19//13
f 27//14 17//14 18//14
f 9//6 17//6 19//6
f 12//5 20//5 18//5
f 11//8 19//8 20//8
f 10//7 18//7 17//7
f 9//11 11//11 12//11
f 25//15 19//15 17//15
f 24//15 26//15 28//15
f 23//14 28//14 25//14
f 21//13 27//13 26//13
f 21//12 22//12 25//12
