# Blender v2.79 (sub 0) OBJ File: 'mansion.blend'
# www.blender.org
o Wallpaper
v -2.185717 2.282397 0.645129
v -2.185726 2.282397 -4.387047
v 4.152809 2.282397 -4.401134
v -2.185717 3.597280 0.645129
v -2.185726 3.597280 -4.387047
v 4.152809 3.597280 -4.401134
v 1.687509 2.282397 -4.401130
v 1.687509 3.597280 -4.401130
v -0.803102 2.282397 -4.387050
v -0.803102 3.597280 -4.387050
v 1.687510 2.282397 -4.062896
v 1.687510 3.597280 -4.062896
v -0.803102 2.282397 -4.062891
v -0.803102 3.597280 -4.062891
v 2.094352 2.282397 -4.401131
v 2.094352 3.597280 -4.401131
v 2.997035 2.282397 -4.401132
v 2.997035 3.597280 -4.401132
v -2.185723 2.282397 -2.801901
v -2.185723 3.597280 -2.801901
v -2.185724 2.282397 -3.134975
v -2.185724 3.597280 -3.134975
vt 0.149173 1.355077
vt -1.348634 -0.036199
vt 0.149159 -0.036211
vt -3.147928 1.355133
vt -6.942960 -0.036131
vt -3.147954 -0.036171
vt 0.605846 -0.036210
vt 4.017847 1.355038
vt 3.576650 -0.036213
vt 4.017842 -0.036210
vt 3.119976 1.355052
vt 3.119970 -0.036216
vt 3.576654 1.355045
vt 4.972952 1.355031
vt 4.972944 -0.036210
vt 6.195841 1.355022
vt 6.195833 -0.036215
vt -2.795497 1.355125
vt -2.795522 -0.036177
vt -1.348614 1.355098
vt -6.942933 1.355174
vt 0.605856 1.355068
vn 0.0000 0.0000 1.0000
vn 1.0000 0.0000 -0.0000
vn -1.0000 0.0000 0.0000
s off
f 10/1/1 2/2/1 9/3/1
f 20/4/2 1/5/2 19/6/2
f 13/7/3 10/1/3 9/3/3
f 16/8/1 7/9/1 15/10/1
f 12/11/1 13/7/1 11/12/1
f 12/11/2 7/9/2 8/13/2
f 18/14/1 15/10/1 17/15/1
f 6/16/1 17/15/1 3/17/1
f 22/18/2 19/6/2 21/19/2
f 5/20/2 21/19/2 2/2/2
f 10/1/1 5/20/1 2/2/1
f 20/4/2 4/21/2 1/5/2
f 13/7/3 14/22/3 10/1/3
f 16/8/1 8/13/1 7/9/1
f 12/11/1 14/22/1 13/7/1
f 12/11/2 11/12/2 7/9/2
f 18/14/1 16/8/1 15/10/1
f 6/16/1 18/14/1 17/15/1
f 22/18/2 20/4/2 19/6/2
f 5/20/2 22/18/2 21/19/2
